<?xml version="1.0" encoding="UTF-8" standalone="no"?><!DOCTYPE svg PUBLIC "-//W3C//DTD SVG 1.1//EN" "http://www.w3.org/Graphics/SVG/1.1/DTD/svg11.dtd"><svg width="100%" height="100%" viewBox="0 0 262 269" version="1.1" xmlns="http://www.w3.org/2000/svg" xmlns:xlink="http://www.w3.org/1999/xlink" xml:space="preserve" xmlns:serif="http://www.serif.com/" style="fill-rule:evenodd;clip-rule:evenodd;stroke-miterlimit:10;"><g><path d="M130.71,131.68c-0.24,0 -0.48,0 -0.72,-0.01c0.05,1.49 0.05,2.97 0,4.46l0.73,0c-0.06,-1.48 -0.06,-2.96 -0.01,-4.44l0,-0.01Z" style="fill:none;fill-rule:nonzero;"/><path d="M133.66,133.42c0.03,-0.71 0.5,-1.34 1.21,-1.91c-1.38,0.09 -2.77,0.16 -4.16,0.16c-0.05,1.48 -0.05,2.96 0.01,4.44c1.76,0 3.52,0.09 5.28,0.24c-1.31,-0.82 -2.38,-1.83 -2.34,-2.94l0,0.01Z" style="fill:none;fill-rule:nonzero;stroke:#d4a574;stroke-width:0.75px;"/><path d="M189.52,95.92c-0.33,-1.09 -0.54,-2.1 -0.67,-3.06c-3,7.19 -7.39,13.94 -13.16,19.84c0.03,0.1 0.05,0.19 0.08,0.29c4.39,1.24 6.11,1.32 10.56,2.98c0.43,0.16 0.98,0.37 1.62,0.63c0.08,-0.16 0.15,-0.3 0.23,-0.47c0.78,-1.6 2.06,-4.22 3.95,-7.53c0.72,-1.25 1.34,-2.29 2.02,-3.44c-0.68,-1.16 -1.41,-2.45 -2.21,-3.9c-1.21,-2.21 -1.87,-3.51 -2.42,-5.32l-0,-0.02Z" style="fill:none;fill-rule:nonzero;stroke:#d4a574;stroke-width:0.75px;"/><path d="M175.22,113.18c-6.85,6.85 -14.88,11.78 -23.43,14.83c0.94,0.12 1.95,0.29 3.04,0.54c2.54,0.6 4.51,1.43 7.66,3c1.78,0.89 3.17,1.63 4.33,2.28c1.35,-0.77 2.82,-1.63 4.48,-2.62c2.91,-1.72 2.8,-1.78 5.41,-3.27c0.93,-0.53 1.75,-1 2.52,-1.43c-0.2,-0.73 -0.42,-1.51 -0.65,-2.36c-0.79,-2.91 -0.67,-2.87 -1.51,-6.14c-0.48,-1.88 -0.91,-3.53 -1.32,-5.02c-0.09,-0.03 -0.19,-0.05 -0.28,-0.08c-0.09,0.09 -0.17,0.19 -0.26,0.28l0.01,-0.01Z" style="fill:none;fill-rule:nonzero;stroke:#d4a574;stroke-width:0.75px;"/><path d="M238.47,89.02c-12.37,-12.37 -28.59,-18.53 -44.8,-18.49c-0.03,1 -0.09,1.99 -0.17,2.99c0.21,-0.07 0.44,-0.12 0.67,-0.12c0.91,0.01 1.57,0.66 2.24,1.33c0.4,0.4 1.69,1.73 2.69,5.5c0.77,2.88 0.91,5.09 0.93,5.57c0.14,2.53 -0.11,4.44 -0.28,5.65c-0.2,1.44 -0.48,3.36 -1.37,5.7c-0.46,1.21 -0.91,2.07 -1.65,3.44c-1.06,1.94 -1.86,3.32 -2.59,4.56c1.23,2.1 2.25,3.75 3.01,5c1.79,2.92 3.09,5.04 4.1,6.82c0.12,-0.04 0.23,-0.08 0.36,-0.12c1.68,-0.58 4.44,-1.53 8.12,-2.53c1.39,-0.38 2.56,-0.67 3.87,-1c0.34,-1.3 0.73,-2.73 1.19,-4.32c0.7,-2.42 1.16,-3.8 2.05,-5.47c1.3,-2.44 2.79,-4.04 4.14,-5.51c2.28,-2.48 4.28,-3.98 5.03,-4.53c3.08,-2.24 4.94,-2.74 5.43,-2.87c1.25,-0.32 3.49,-0.89 4.62,0.27c0.63,0.65 0.64,1.57 0.64,2.52c0,0.56 -0.02,2.41 -1.98,5.79c-1.5,2.58 -2.96,4.24 -3.28,4.6c-1.69,1.89 -3.22,3.06 -4.19,3.8c-1.16,0.88 -2.72,2.04 -4.99,3.06c-1.18,0.53 -2.11,0.83 -3.6,1.27c-2.12,0.63 -3.66,1.04 -5.06,1.39c-0.62,2.35 -1.06,4.24 -1.4,5.66c-0.71,2.96 -1.25,5.2 -1.74,7.05c0.25,0.12 0.5,0.24 0.77,0.37c1.6,0.78 4.22,2.06 7.53,3.95c1.25,0.72 2.29,1.34 3.44,2.02c1.16,-0.68 2.45,-1.41 3.9,-2.21c2.21,-1.22 3.51,-1.87 5.32,-2.42c2.65,-0.8 4.83,-0.89 6.82,-0.97c3.37,-0.14 5.84,0.21 6.75,0.35c3.76,0.6 5.43,1.55 5.86,1.81c1.11,0.66 3.1,1.84 3.07,3.46c-0.01,0.91 -0.66,1.57 -1.33,2.24c-0.4,0.4 -1.73,1.69 -5.5,2.69c-2.88,0.77 -5.09,0.91 -5.57,0.93c-2.53,0.14 -4.44,-0.11 -5.65,-0.28c-1.44,-0.2 -3.36,-0.48 -5.7,-1.37c-1.21,-0.46 -2.07,-0.91 -3.44,-1.65c-1.94,-1.06 -3.32,-1.86 -4.56,-2.59c-2.1,1.23 -3.75,2.25 -5,3.01c-2.88,1.76 -4.98,3.05 -6.75,4.06c0.57,2.04 1.18,4.55 2.02,8.08c0.34,1.43 0.78,3.31 1.4,5.66c1.39,0.36 2.93,0.77 5.06,1.39c1.49,0.44 2.42,0.73 3.6,1.27c2.27,1.02 3.83,2.19 4.99,3.06c0.97,0.74 2.51,1.91 4.19,3.8c0.32,0.36 1.78,2.02 3.28,4.6c1.96,3.38 1.98,5.23 1.98,5.79c0,0.95 0,1.87 -0.64,2.52c-1.13,1.16 -3.37,0.59 -4.62,0.27c-0.49,-0.12 -2.34,-0.63 -5.43,-2.87c-0.75,-0.54 -2.75,-2.04 -5.03,-4.53c-1.35,-1.47 -2.83,-3.07 -4.14,-5.51c-0.89,-1.67 -1.35,-3.05 -2.05,-5.47c-0.46,-1.59 -0.85,-3.03 -1.19,-4.32c-1.3,-0.33 -2.47,-0.62 -3.87,-1c-3.69,-1 -6.44,-1.95 -8.12,-2.53c-0.11,-0.04 -0.2,-0.07 -0.3,-0.1c-0.24,0.55 -0.45,1.03 -0.62,1.41c-1.98,4.31 -3.13,5.59 -5.36,9.57c2.42,4.24 3.82,7.2 4.67,10.95c0.16,0.71 0.72,3.26 0.83,6.65c0.08,2.57 0.17,5.4 -0.89,8.62c-0.23,0.7 -2.34,7.06 -5.02,6.96c-0.72,-0.03 -1.37,-0.53 -1.95,-1.26c0.16,1.46 0.27,2.92 0.32,4.39c16.24,0.06 32.5,-6.1 44.89,-18.49c24.66,-24.66 24.66,-64.65 0,-89.31l0.05,-0.01Z" style="fill:none;fill-rule:nonzero;stroke:#d4a574;stroke-width:0.75px;"/><path d="M178.32,142.34c0.2,-0.74 0.39,-1.42 0.57,-2.07c-1.04,-0.42 -1.89,-0.8 -2.49,-1.07c-4.31,-1.98 -5.59,-3.13 -9.57,-5.36c-4.24,2.42 -7.2,3.82 -10.95,4.67c-0.64,0.15 -2.76,0.61 -5.63,0.78c8.77,2.88 17.02,7.73 24.08,14.55c0.4,-0.12 0.79,-0.23 1.16,-0.34c0.41,-1.49 0.84,-3.15 1.32,-5.02c0.84,-3.28 0.72,-3.23 1.51,-6.14Z" style="fill:none;fill-rule:nonzero;stroke:#d4a574;stroke-width:0.75px;"/><path d="M189.72,150.63c-0.26,-0.46 -0.5,-0.87 -0.74,-1.29c-1.23,0.53 -2.24,0.93 -2.95,1.19c-4.45,1.65 -6.17,1.73 -10.56,2.98c-0.11,0.39 -0.21,0.77 -0.32,1.14c6.59,6.6 11.4,14.3 14.47,22.51c0.09,-1.31 0.29,-2.88 0.7,-4.62c0.6,-2.54 1.43,-4.51 3,-7.66c0.89,-1.78 1.63,-3.17 2.28,-4.34c-0.77,-1.34 -1.63,-2.82 -2.62,-4.48c-1.72,-2.91 -1.78,-2.8 -3.27,-5.41l0.01,-0.02Z" style="fill:none;fill-rule:nonzero;stroke:#d4a574;stroke-width:0.75px;"/><path d="M178.88,140.27c0.87,-3.16 1.52,-5.3 2.45,-7.35c-0.76,-1.79 -1.34,-3.73 -2.08,-6.41c-0.77,0.44 -1.59,0.9 -2.52,1.43c-2.62,1.5 -2.5,1.55 -5.41,3.27c-1.67,0.99 -3.14,1.85 -4.48,2.62c3.98,2.23 5.26,3.38 9.57,5.36c0.6,0.28 1.45,0.65 2.49,1.07l-0.02,0.01Z" style="fill:none;fill-rule:nonzero;stroke:#d4a574;stroke-width:0.75px;"/><path d="M230.21,136.61c2.33,0.88 4.26,1.16 5.7,1.37c1.21,0.17 3.12,0.43 5.65,0.28c0.48,-0.03 2.69,-0.17 5.57,-0.93c3.77,-1 5.1,-2.3 5.5,-2.69c0.67,-0.67 1.32,-1.33 1.33,-2.24c0.02,-1.62 -1.96,-2.8 -3.07,-3.46c-0.43,-0.26 -2.1,-1.21 -5.86,-1.81c-0.92,-0.15 -3.39,-0.5 -6.75,-0.35c-2,0.08 -4.18,0.17 -6.82,0.97c-1.81,0.55 -3.11,1.2 -5.32,2.42c-1.45,0.8 -2.74,1.54 -3.9,2.21c1.24,0.73 2.62,1.53 4.56,2.59c1.36,0.74 2.23,1.19 3.44,1.65l-0.03,-0.01Zm15.44,-6.35c2.79,0 5.05,0.9 5.05,2.02c0,1.12 -2.26,2.02 -5.05,2.02c-2.79,0 -5.05,-0.9 -5.05,-2.02c0,-1.12 2.26,-2.02 5.05,-2.02Z" style="fill:none;fill-rule:nonzero;stroke:#d4a574;stroke-width:0.75px;"/><path d="M208.13,132.9c0.33,0.79 0.67,1.63 1.03,2.56c0.48,1.21 0.88,2.47 1.31,3.97c1.77,-1.01 3.87,-2.3 6.75,-4.06c1.25,-0.77 2.9,-1.79 5,-3.01c-1.16,-0.68 -2.19,-1.31 -3.44,-2.02c-3.31,-1.9 -5.93,-3.18 -7.53,-3.95c-0.27,-0.13 -0.52,-0.25 -0.77,-0.37c-0.53,1.99 -1.01,3.52 -1.59,5c-0.26,0.67 -0.51,1.29 -0.75,1.89l-0.01,-0.01Z" style="fill:none;fill-rule:nonzero;stroke:#d4a574;stroke-width:0.75px;"/><ellipse cx="245.65" cy="132.28" rx="5.05" ry="2.02" style="fill:#d4a574;stroke:#d4a574;stroke-width:0.75px;"/><path d="M190.33,172.52c-0.41,1.74 -0.61,3.32 -0.7,4.62c1.85,4.96 3.06,10.09 3.62,15.29c0.57,0.73 1.22,1.23 1.95,1.26c2.68,0.11 4.79,-6.26 5.02,-6.96c1.07,-3.22 0.98,-6.04 0.89,-8.62c-0.11,-3.39 -0.67,-5.93 -0.83,-6.65c-0.86,-3.75 -2.26,-6.71 -4.67,-10.95c-0.65,1.17 -1.39,2.56 -2.28,4.34c-1.57,3.14 -2.4,5.12 -3,7.66l0,0.01Zm5.22,7.39c1.12,0 2.02,2.26 2.02,5.05c0,2.79 -0.9,5.05 -2.02,5.05c-1.12,0 -2.02,-2.26 -2.02,-5.05c0,-2.79 0.9,-5.05 2.02,-5.05Z" style="fill:none;fill-rule:nonzero;stroke:#d4a574;stroke-width:0.75px;"/><path d="M194.4,146.68c-2.04,1.12 -3.9,2 -5.42,2.66c0.24,0.42 0.47,0.83 0.74,1.29c1.5,2.62 1.55,2.5 3.27,5.41c0.99,1.67 1.85,3.14 2.62,4.48c2.23,-3.98 3.38,-5.26 5.36,-9.57c0.17,-0.38 0.39,-0.86 0.62,-1.41c-2.94,-1.02 -4.48,-1.56 -6.29,-2.43c-0.29,-0.14 -0.6,-0.29 -0.9,-0.44l-0,0.01Z" style="fill:none;fill-rule:nonzero;stroke:#d4a574;stroke-width:0.75px;"/><path d="M188.17,116.12c-0.08,0.17 -0.15,0.31 -0.23,0.47c1.64,0.66 3.91,1.67 6.48,3.07c0.2,-0.1 0.41,-0.2 0.6,-0.29c1.79,-0.86 3.33,-1.4 6.23,-2.41c-1.01,-1.78 -2.31,-3.9 -4.1,-6.82c-0.77,-1.25 -1.79,-2.9 -3.01,-5c-0.68,1.16 -1.31,2.19 -2.02,3.44c-1.9,3.31 -3.18,5.93 -3.95,7.53l0,0.01Z" style="fill:none;fill-rule:nonzero;stroke:#d4a574;stroke-width:0.75px;"/><path d="M194.1,76.4c1.12,0 2.02,2.26 2.02,5.05c0,2.79 -0.9,5.05 -2.02,5.05c-0.96,0 -1.77,-1.69 -1.97,-3.95c-0.79,3.51 -1.89,6.96 -3.29,10.31c0.14,0.95 0.34,1.97 0.67,3.06c0.55,1.81 1.2,3.11 2.42,5.32c0.8,1.45 1.54,2.74 2.21,3.9c0.73,-1.24 1.53,-2.62 2.59,-4.56c0.74,-1.36 1.19,-2.23 1.65,-3.44c0.88,-2.33 1.16,-4.26 1.37,-5.7c0.17,-1.21 0.43,-3.12 0.28,-5.65c-0.03,-0.48 -0.17,-2.69 -0.93,-5.57c-1,-3.77 -2.3,-5.1 -2.69,-5.5c-0.67,-0.67 -1.33,-1.32 -2.24,-1.33c-0.23,0 -0.45,0.04 -0.67,0.12c-0.09,1.18 -0.21,2.35 -0.37,3.53c0.29,-0.4 0.62,-0.64 0.97,-0.64Z" style="fill:none;fill-rule:nonzero;stroke:#d4a574;stroke-width:0.75px;"/><path d="M174.33,153.84c0.27,0.26 0.55,0.51 0.81,0.77c0,0 0.02,0.02 0.02,0.03c0.1,-0.37 0.21,-0.75 0.32,-1.14c-0.36,0.1 -0.75,0.22 -1.16,0.34l0.01,-0Z" style="fill:none;fill-rule:nonzero;stroke:#d4a574;stroke-width:0.75px;"/><path d="M222.26,110.64c2.27,-1.02 3.83,-2.19 4.99,-3.06c0.97,-0.74 2.51,-1.91 4.19,-3.8c0.32,-0.36 1.78,-2.02 3.28,-4.6c1.96,-3.37 1.98,-5.23 1.98,-5.79c0,-0.95 0,-1.87 -0.64,-2.52c-1.13,-1.16 -3.37,-0.59 -4.62,-0.27c-0.49,0.12 -2.34,0.63 -5.43,2.87c-0.75,0.54 -2.75,2.04 -5.03,4.53c-1.35,1.47 -2.83,3.07 -4.14,5.51c-0.89,1.67 -1.35,3.05 -2.05,5.47c-0.46,1.59 -0.85,3.03 -1.19,4.32c1.39,-0.36 2.93,-0.77 5.06,-1.39c1.49,-0.44 2.42,-0.73 3.6,-1.27Zm6.37,-15.34c1.97,-1.97 4.21,-2.93 5,-2.14c0.79,0.79 -0.17,3.03 -2.14,5c-1.97,1.97 -4.21,2.93 -5,2.14c-0.79,-0.79 0.17,-3.03 2.14,-5Z" style="fill:none;fill-rule:nonzero;stroke:#d4a574;stroke-width:0.75px;"/><path d="M204.34,123.36c0.15,0.05 0.3,0.1 0.44,0.16c1.78,0.63 3.19,1.29 5.68,2.5c0.49,-1.85 1.03,-4.09 1.74,-7.05c0.34,-1.43 0.78,-3.31 1.4,-5.66c-1.3,0.33 -2.47,0.63 -3.87,1c-3.69,1 -6.44,1.95 -8.12,2.53c-0.13,0.04 -0.24,0.08 -0.36,0.12c0.86,1.5 1.51,2.77 2.07,4.05c0.37,0.84 0.7,1.61 1.01,2.35l0.01,0Z" style="fill:none;fill-rule:nonzero;stroke:#d4a574;stroke-width:0.75px;"/><path d="M178.88,140.27c-0.18,0.64 -0.36,1.33 -0.57,2.07c-0.79,2.91 -0.67,2.87 -1.51,6.14c-0.48,1.88 -0.91,3.53 -1.32,5.02c4.39,-1.24 6.11,-1.32 10.56,-2.98c0.7,-0.26 1.72,-0.66 2.95,-1.19c-1.62,-2.84 -2.71,-4.83 -3.52,-6.82c-2.65,-0.75 -4.89,-1.56 -6.58,-2.25l-0.01,0.01Z" style="fill:none;fill-rule:nonzero;stroke:#d4a574;stroke-width:0.75px;"/><path d="M231.49,98.16c1.97,-1.97 2.93,-4.21 2.14,-5c-0.79,-0.79 -3.03,0.17 -5,2.14c-1.97,1.97 -2.93,4.21 -2.14,5c0.79,0.79 3.03,-0.17 5,-2.14Z" style="fill:#d4a574;fill-rule:nonzero;stroke:#d4a574;stroke-width:0.75px;"/><path d="M181.33,132.92c-0.93,2.04 -1.57,4.18 -2.45,7.35c1.7,0.69 3.94,1.5 6.58,2.25c-0.33,-0.8 -0.62,-1.61 -0.87,-2.48c-0.18,-0.6 -0.38,-1.32 -0.58,-2.13c-0.66,-1 -1.16,-1.91 -1.56,-2.63c-0.43,-0.79 -0.8,-1.55 -1.13,-2.35l0.01,-0.01Z" style="fill:none;fill-rule:nonzero;stroke:#d4a574;stroke-width:0.75px;"/><path d="M204.34,123.36c0.76,1.85 1.32,3.47 1.62,5.38c0.88,1.31 1.53,2.64 2.17,4.16c0.24,-0.6 0.49,-1.22 0.75,-1.89c0.58,-1.48 1.06,-3.01 1.59,-5c-2.49,-1.21 -3.9,-1.87 -5.68,-2.5c-0.15,-0.05 -0.3,-0.1 -0.44,-0.16l-0.01,0.01Z" style="fill:none;fill-rule:nonzero;stroke:#d4a574;stroke-width:0.75px;"/><path d="M194.42,119.66c0.48,0.26 0.98,0.54 1.48,0.83c0.77,0.45 1.48,0.86 2.16,1.27c2.46,0.32 4.49,0.99 6.27,1.61c-0.3,-0.74 -0.64,-1.51 -1.01,-2.35c-0.56,-1.29 -1.21,-2.55 -2.07,-4.05c-2.9,1 -4.44,1.54 -6.23,2.41c-0.2,0.09 -0.4,0.19 -0.6,0.29l-0,-0.01Z" style="fill:none;fill-rule:nonzero;stroke:#d4a574;stroke-width:0.75px;"/><path d="M186.37,142.78c-0.31,-0.08 -0.61,-0.17 -0.91,-0.26c0.81,1.99 1.9,3.98 3.52,6.82c1.52,-0.66 3.37,-1.53 5.42,-2.66c-1.62,-0.79 -3.41,-1.74 -5.25,-3.19c-0.87,-0.22 -1.78,-0.46 -2.78,-0.72l0,0.01Z" style="fill:none;fill-rule:nonzero;stroke:#d4a574;stroke-width:0.75px;"/><path d="M204.83,127.21c0.42,0.52 0.79,1.02 1.13,1.53c-0.3,-1.91 -0.86,-3.53 -1.62,-5.38c-1.78,-0.62 -3.8,-1.28 -6.27,-1.61c2.75,1.64 4.8,3.08 6.76,5.46Z" style="fill:none;fill-rule:nonzero;stroke:#d4a574;stroke-width:0.75px;"/><path d="M185.46,142.52c0.3,0.09 0.6,0.17 0.91,0.26c1,0.27 1.91,0.51 2.78,0.72c-0.39,-0.3 -0.78,-0.62 -1.17,-0.97c-1.77,-1.58 -3.03,-3.2 -3.97,-4.62c0.19,0.81 0.4,1.54 0.58,2.13c0.26,0.87 0.54,1.68 0.87,2.48Z" style="fill:none;fill-rule:nonzero;stroke:#d4a574;stroke-width:0.75px;"/><path d="M217.14,162.98c1.3,2.44 2.79,4.04 4.14,5.51c2.28,2.48 4.28,3.98 5.03,4.53c3.08,2.24 4.94,2.74 5.43,2.87c1.25,0.32 3.49,0.89 4.62,-0.27c0.63,-0.65 0.64,-1.57 0.64,-2.52c0,-0.56 -0.03,-2.41 -1.98,-5.79c-1.5,-2.58 -2.96,-4.24 -3.28,-4.6c-1.69,-1.89 -3.22,-3.06 -4.19,-3.8c-1.16,-0.88 -2.72,-2.04 -4.99,-3.06c-1.18,-0.53 -2.11,-0.83 -3.6,-1.27c-2.12,-0.63 -3.66,-1.04 -5.06,-1.39c0.34,1.3 0.73,2.73 1.19,4.32c0.7,2.42 1.16,3.81 2.05,5.47Zm9.95,3.19c0.79,-0.79 3.03,0.17 5,2.14c1.97,1.97 2.93,4.21 2.14,5c-0.79,0.79 -3.03,-0.17 -5,-2.14c-1.97,-1.97 -2.93,-4.21 -2.14,-5Z" style="fill:none;fill-rule:nonzero;stroke:#d4a574;stroke-width:0.75px;"/><path d="M178.59,124.15c0.23,0.85 0.45,1.63 0.65,2.36c2.24,-1.26 3.96,-2.17 5.68,-2.87c0.13,-0.37 0.25,-0.73 0.37,-1.08c0.65,-1.85 1.34,-3.3 2.64,-5.98c-0.64,-0.26 -1.19,-0.47 -1.62,-0.63c-4.45,-1.65 -6.03,-1.63 -10.42,-2.87c0.41,1.49 0.7,3.04 1.19,4.92c0.84,3.28 0.72,3.23 1.51,6.14l0,0.01Z" style="fill:none;fill-rule:nonzero;stroke:#d4a574;stroke-width:0.75px;"/><path d="M204.12,142.5c-0.87,2.98 -1.82,5.39 -2.52,7.05c0.1,0.04 0.19,0.07 0.3,0.1c1.68,0.58 4.44,1.53 8.12,2.53c1.39,0.38 2.56,0.67 3.87,1c-0.62,-2.35 -1.06,-4.24 -1.4,-5.66c-0.85,-3.53 -1.45,-6.04 -2.02,-8.08c-1.54,0.88 -2.82,1.54 -4.13,2.11c-0.79,0.34 -1.52,0.66 -2.21,0.95l-0.01,0Z" style="fill:none;fill-rule:nonzero;stroke:#d4a574;stroke-width:0.75px;"/><path d="M234.23,173.32c0.79,-0.79 -0.17,-3.03 -2.14,-5c-1.97,-1.97 -4.21,-2.93 -5,-2.14c-0.79,0.79 0.17,3.03 2.14,5c1.97,1.97 4.21,2.93 5,2.14Z" style="fill:#d4a574;fill-rule:nonzero;stroke:#d4a574;stroke-width:0.75px;"/><path d="M208.13,132.9c-0.85,2.08 -1.64,3.78 -2.9,5.5c-0.2,0.81 -0.42,1.65 -0.67,2.58c-0.14,0.53 -0.28,1.03 -0.43,1.53c0.7,-0.29 1.42,-0.61 2.21,-0.95c1.31,-0.57 2.59,-1.23 4.13,-2.11c-0.42,-1.51 -0.83,-2.76 -1.31,-3.97c-0.36,-0.93 -0.7,-1.77 -1.03,-2.56l0,-0.02Z" style="fill:none;fill-rule:nonzero;stroke:#d4a574;stroke-width:0.75px;"/><path d="M182.18,131.22c0.37,-0.68 0.83,-1.51 1.43,-2.44c0.3,-1.96 0.81,-3.64 1.32,-5.13c-1.72,0.7 -3.44,1.6 -5.68,2.87c0.74,2.68 1.33,4.62 2.08,6.41c0.26,-0.57 0.54,-1.13 0.85,-1.71Z" style="fill:none;fill-rule:nonzero;stroke:#d4a574;stroke-width:0.75px;"/><path d="M198.73,144.16c-0.94,0.59 -1.96,1.18 -3.1,1.84c-0.42,0.24 -0.82,0.46 -1.22,0.69c0.31,0.15 0.61,0.3 0.9,0.44c1.81,0.87 3.35,1.41 6.29,2.43c0.71,-1.66 1.65,-4.07 2.52,-7.05c-1.86,0.77 -3.49,1.34 -5.4,1.66l0.01,-0.01Z" style="fill:none;fill-rule:nonzero;stroke:#d4a574;stroke-width:0.75px;"/><path d="M184.92,123.65c0.77,-0.31 1.55,-0.59 2.39,-0.83c0.75,-0.22 1.69,-0.49 2.8,-0.73c1.52,-1.03 2.98,-1.78 4.31,-2.43c-2.58,-1.4 -4.84,-2.4 -6.48,-3.07c-1.3,2.68 -1.99,4.13 -2.64,5.98c-0.12,0.35 -0.25,0.71 -0.37,1.08l-0.01,0Z" style="fill:none;fill-rule:nonzero;stroke:#d4a574;stroke-width:0.75px;"/><path d="M198.73,144.16c1.9,-0.31 3.53,-0.88 5.4,-1.66c0.15,-0.5 0.29,-1 0.43,-1.53c0.25,-0.92 0.47,-1.76 0.67,-2.58c-0.21,0.29 -0.43,0.58 -0.67,0.87c-1.73,2.1 -3.53,3.46 -5.82,4.88l-0.01,0.02Z" style="fill:none;fill-rule:nonzero;stroke:#d4a574;stroke-width:0.75px;"/><path d="M187.7,123.96c0.81,-0.73 1.62,-1.33 2.41,-1.87c-1.1,0.23 -2.04,0.5 -2.8,0.73c-0.84,0.25 -1.62,0.52 -2.39,0.83c-0.51,1.5 -1.02,3.17 -1.32,5.13c0.95,-1.47 2.25,-3.16 4.1,-4.82Z" style="fill:none;fill-rule:nonzero;stroke:#d4a574;stroke-width:0.75px;"/><path d="M205.22,138.4c1.26,-1.72 2.06,-3.41 2.9,-5.5c-0.64,-1.53 -1.29,-2.85 -2.17,-4.16c0.06,0.38 0.11,0.77 0.15,1.17c0.3,3.02 -0.12,5.45 -0.88,8.49Z" style="fill:none;fill-rule:nonzero;stroke:#d4a574;stroke-width:0.75px;"/><path d="M181.33,132.92c0.33,0.79 0.7,1.56 1.13,2.35c0.39,0.73 0.9,1.63 1.56,2.63c-0.43,-1.81 -0.8,-4.12 -0.65,-6.91c0.04,-0.78 0.13,-1.51 0.24,-2.22c-0.6,0.92 -1.06,1.76 -1.43,2.44c-0.31,0.58 -0.59,1.14 -0.85,1.71Z" style="fill:none;fill-rule:nonzero;stroke:#d4a574;stroke-width:0.75px;"/><path d="M189.15,143.5c1.85,1.44 3.64,2.4 5.25,3.19c0.4,-0.22 0.81,-0.44 1.22,-0.69c1.14,-0.66 2.16,-1.26 3.1,-1.84c-0.42,0.07 -0.84,0.13 -1.29,0.17c-2.95,0.29 -5.34,-0.1 -8.29,-0.83l0.01,0Z" style="fill:none;fill-rule:nonzero;stroke:#d4a574;stroke-width:0.75px;"/><path d="M196.36,121.59c0.6,0.03 1.16,0.1 1.72,0.17c-0.68,-0.41 -1.39,-0.82 -2.16,-1.27c-0.5,-0.29 -1,-0.57 -1.48,-0.83c-1.34,0.65 -2.79,1.39 -4.31,2.43c1.7,-0.36 3.79,-0.63 6.24,-0.5l-0.01,-0Z" style="fill:none;fill-rule:nonzero;stroke:#d4a574;stroke-width:0.75px;"/><path d="M190.11,122.09c-0.79,0.54 -1.59,1.15 -2.41,1.87c-1.85,1.66 -3.15,3.35 -4.1,4.82c-0.11,0.7 -0.19,1.44 -0.24,2.22c-0.16,2.79 0.22,5.1 0.65,6.91c0.94,1.42 2.2,3.04 3.97,4.62c0.39,0.35 0.78,0.67 1.17,0.97c2.94,0.73 5.34,1.12 8.29,0.83c0.45,-0.04 0.88,-0.1 1.29,-0.17c2.29,-1.42 4.09,-2.78 5.82,-4.88c0.24,-0.29 0.46,-0.58 0.67,-0.87c0.76,-3.04 1.18,-5.47 0.88,-8.49c-0.04,-0.4 -0.09,-0.79 -0.15,-1.17c-0.34,-0.51 -0.71,-1.02 -1.13,-1.53c-1.95,-2.38 -4.01,-3.81 -6.76,-5.46c-0.55,-0.07 -1.12,-0.13 -1.72,-0.17c-2.45,-0.14 -4.54,0.14 -6.24,0.5l0.01,-0Zm6.74,13.54c-1.38,1.38 -3.62,1.38 -5,0c-1.38,-1.38 -1.38,-3.62 0,-5c1.38,-1.38 3.62,-1.38 5,0c1.38,1.38 1.38,3.62 0,5Z" style="fill:none;fill-rule:nonzero;stroke:#d4a574;stroke-width:0.75px;"/><path d="M191.86,130.64c-1.38,1.38 -1.38,3.62 0,5c1.38,1.38 3.62,1.38 5,0c1.38,-1.38 1.38,-3.62 0,-5c-1.38,-1.38 -3.62,-1.38 -5,0Z" style="fill:#d4a574;fill-rule:nonzero;stroke:#d4a574;stroke-width:0.75px;"/><path d="M195.55,190.01c1.12,0 2.02,-2.26 2.02,-5.05c0,-2.79 -0.9,-5.05 -2.02,-5.05c-1.12,0 -2.02,2.26 -2.02,5.05c0,2.79 0.9,5.05 2.02,5.05Z" style="fill:#d4a574;fill-rule:nonzero;stroke:#d4a574;stroke-width:0.75px;"/><path d="M194.1,86.5c1.12,0 2.02,-2.26 2.02,-5.05c0,-2.79 -0.9,-5.05 -2.02,-5.05c-0.35,0 -0.68,0.25 -0.97,0.64c-0.25,1.85 -0.59,3.68 -1,5.5c0.2,2.26 1,3.95 1.97,3.95l0,0.01Z" style="fill:#d4a574;fill-rule:nonzero;stroke:#d4a574;stroke-width:0.75px;"/><path d="M83.1,152.27c-3.69,-1 -6.44,-1.95 -8.12,-2.53c-0.11,-0.04 -0.2,-0.07 -0.3,-0.1c-0.24,0.55 -0.45,1.03 -0.62,1.41c-1.98,4.31 -3.13,5.59 -5.36,9.57c2.42,4.24 3.82,7.2 4.67,10.95c0.03,0.12 0.07,0.3 0.11,0.52c3.01,-6.32 7.12,-12.24 12.35,-17.47c0.39,-0.39 0.79,-0.75 1.19,-1.13c-0.02,-0.07 -0.04,-0.14 -0.05,-0.21c-1.3,-0.33 -2.47,-0.63 -3.87,-1l0,-0.01Z" style="fill:none;fill-rule:nonzero;stroke:#d4a574;stroke-width:0.75px;"/><path d="M91.84,130.44c1.25,0.72 2.29,1.34 3.44,2.02c1.16,-0.68 2.45,-1.41 3.9,-2.21c2.21,-1.22 3.51,-1.87 5.32,-2.42c0.95,-0.29 1.85,-0.48 2.69,-0.62c-7.48,-2.97 -14.51,-7.44 -20.63,-13.39c-0.56,2.15 -0.97,3.9 -1.29,5.24c-0.71,2.96 -1.25,5.2 -1.74,7.05c0.25,0.12 0.5,0.24 0.77,0.37c1.6,0.78 4.22,2.06 7.53,3.95l0.01,0.01Z" style="fill:none;fill-rule:nonzero;stroke:#d4a574;stroke-width:0.75px;"/><path d="M74.34,117.05c0.12,-0.04 0.23,-0.08 0.36,-0.12c1.68,-0.58 4.44,-1.53 8.12,-2.53c1.23,-0.33 2.29,-0.6 3.42,-0.89c-0.11,-0.11 -0.23,-0.21 -0.34,-0.32c-5.86,-5.86 -10.31,-12.59 -13.39,-19.77c-0.21,1.11 -0.51,2.38 -1.06,3.82c-0.46,1.21 -0.91,2.07 -1.65,3.44c-1.06,1.94 -1.86,3.32 -2.59,4.56c1.23,2.1 2.25,3.75 3.01,5c1.79,2.92 3.09,5.04 4.1,6.82l0.02,-0.01Z" style="fill:none;fill-rule:nonzero;stroke:#d4a574;stroke-width:0.75px;"/><path d="M125.7,134.72c-0.3,0.3 -1.12,1.1 -3.1,1.9c2.45,-0.31 4.92,-0.48 7.39,-0.5c0.06,-1.49 0.06,-2.97 0,-4.46c-1.06,0 -2.13,-0.05 -3.19,-0.11c0.14,0.29 0.23,0.6 0.23,0.93c-0.01,0.91 -0.66,1.57 -1.33,2.24Z" style="fill:none;fill-rule:nonzero;stroke:#d4a574;stroke-width:0.75px;"/><path d="M108.98,138.06c-1.44,-0.2 -3.36,-0.48 -5.7,-1.37c-1.21,-0.46 -2.07,-0.91 -3.44,-1.65c-1.94,-1.06 -3.32,-1.86 -4.56,-2.59c-2.1,1.23 -3.75,2.25 -5,3.01c-2.88,1.76 -4.98,3.05 -6.75,4.06c0.57,2.04 1.18,4.55 2.02,8.08c0.34,1.43 0.79,3.31 1.4,5.66c0.07,0.02 0.14,0.04 0.21,0.06c7.76,-7.32 16.9,-12.3 26.57,-14.95c-2.09,0.05 -3.7,-0.17 -4.76,-0.32l0.01,0.01Z" style="fill:none;fill-rule:nonzero;stroke:#d4a574;stroke-width:0.75px;"/><path d="M63.74,186.78c-0.93,-2.85 -1.03,-5.21 -1.08,-6.64c-0.05,-1.37 -0.05,-4.14 0.75,-7.53c0.6,-2.54 1.43,-4.51 3,-7.66c0.89,-1.78 1.63,-3.17 2.28,-4.34c-0.77,-1.34 -1.63,-2.82 -2.62,-4.48c-1.72,-2.91 -1.78,-2.8 -3.27,-5.41c-0.26,-0.46 -0.5,-0.87 -0.74,-1.29c-1.23,0.53 -2.24,0.93 -2.95,1.19c-4.45,1.65 -6.17,1.73 -10.56,2.98c-1.29,4.71 -2.39,7.79 -4.44,11.05c-0.39,0.62 -1.8,2.81 -4.11,5.29c-1.76,1.88 -3.69,3.94 -6.72,5.46c-0.66,0.33 -6.65,3.34 -8.47,1.37c-1.55,-1.68 0.71,-6.13 1.74,-8.16c1.36,-2.67 2.96,-4.42 3.93,-5.46c0.93,-1 2.89,-2.96 5.86,-4.79c2.22,-1.37 4.21,-2.18 7.54,-3.29c1.89,-0.63 3.39,-1.09 4.68,-1.45c0.41,-1.49 0.84,-3.15 1.32,-5.02c0.84,-3.28 0.72,-3.23 1.51,-6.14c0.2,-0.74 0.39,-1.42 0.57,-2.07c-1.04,-0.42 -1.89,-0.8 -2.49,-1.07c-4.31,-1.98 -5.59,-3.13 -9.57,-5.36c-4.24,2.42 -7.2,3.82 -10.95,4.67c-0.71,0.16 -3.26,0.72 -6.65,0.83c-2.57,0.08 -5.4,0.17 -8.62,-0.89c-0.7,-0.23 -7.06,-2.34 -6.96,-5.02c0.09,-2.28 4.83,-3.83 7,-4.54c2.85,-0.93 5.21,-1.03 6.64,-1.08c1.37,-0.05 4.14,-0.05 7.53,0.75c2.54,0.6 4.51,1.43 7.66,3c1.78,0.89 3.17,1.63 4.33,2.28c1.34,-0.77 2.82,-1.63 4.48,-2.62c2.91,-1.72 2.8,-1.78 5.41,-3.27c0.93,-0.53 1.75,-1 2.52,-1.43c-0.2,-0.73 -0.42,-1.51 -0.65,-2.36c-0.79,-2.91 -0.67,-2.87 -1.51,-6.14c-0.48,-1.88 -0.91,-3.53 -1.32,-5.02c-1.29,-0.36 -2.79,-0.82 -4.68,-1.45c-3.33,-1.12 -5.32,-1.93 -7.54,-3.29c-2.97,-1.83 -4.93,-3.79 -5.86,-4.79c-0.97,-1.04 -2.57,-2.79 -3.93,-5.46c-1.03,-2.03 -3.3,-6.48 -1.74,-8.16c1.82,-1.97 7.81,1.04 8.47,1.37c3.03,1.52 4.96,3.58 6.72,5.46c2.32,2.47 3.73,4.67 4.11,5.29c2.05,3.26 3.15,6.34 4.44,11.05c4.39,1.24 6.11,1.32 10.56,2.98c0.43,0.16 0.98,0.37 1.62,0.63c0.08,-0.16 0.15,-0.3 0.23,-0.47c0.78,-1.6 2.06,-4.22 3.95,-7.53c0.72,-1.25 1.34,-2.29 2.02,-3.44c-0.68,-1.16 -1.41,-2.45 -2.21,-3.9c-1.22,-2.21 -1.87,-3.51 -2.42,-5.32c-0.8,-2.65 -0.89,-4.83 -0.97,-6.82c-0.14,-3.37 0.21,-5.84 0.35,-6.75c0.6,-3.76 1.55,-5.43 1.81,-5.86c0.66,-1.11 1.84,-3.1 3.46,-3.07c0.13,0 0.26,0.02 0.38,0.05c-0.08,-0.97 -0.13,-1.94 -0.16,-2.91c-16.35,-0.15 -32.75,6.01 -45.23,18.48c-24.66,24.66 -24.66,64.65 0,89.31c12.46,12.46 28.83,18.61 45.16,18.48c0.04,-1.1 0.11,-2.2 0.2,-3.3c-1.91,-0.87 -3.22,-4.88 -3.85,-6.82l0.04,-0.1Z" style="fill:none;fill-rule:nonzero;stroke:#d4a574;stroke-width:0.75px;"/><path d="M27.91,128.65c-3.4,-0.8 -6.17,-0.8 -7.53,-0.75c-1.42,0.05 -3.79,0.16 -6.64,1.08c-2.17,0.71 -6.91,2.25 -7,4.54c-0.1,2.68 6.26,4.79 6.96,5.02c3.22,1.07 6.04,0.98 8.62,0.89c3.39,-0.11 5.94,-0.67 6.65,-0.83c3.75,-0.86 6.71,-2.26 10.95,-4.67c-1.17,-0.65 -2.56,-1.39 -4.33,-2.28c-3.15,-1.57 -5.12,-2.4 -7.66,-3l-0.02,0Zm-11.97,7.23c-2.79,0 -5.05,-0.9 -5.05,-2.02c0,-1.12 2.26,-2.02 5.05,-2.02c2.79,0 5.05,0.9 5.05,2.02c0,1.12 -2.26,2.02 -5.05,2.02Z" style="fill:none;fill-rule:nonzero;stroke:#d4a574;stroke-width:0.75px;"/><path d="M81.2,132.99c0.33,0.79 0.67,1.63 1.03,2.56c0.48,1.21 0.88,2.47 1.31,3.97c1.77,-1.01 3.87,-2.3 6.75,-4.06c1.25,-0.77 2.9,-1.79 5,-3.01c-1.16,-0.68 -2.19,-1.31 -3.44,-2.02c-3.31,-1.9 -5.93,-3.18 -7.53,-3.95c-0.27,-0.13 -0.52,-0.25 -0.77,-0.37c-0.53,1.99 -1.01,3.52 -1.59,5c-0.26,0.67 -0.51,1.29 -0.75,1.89l-0.01,-0.01Z" style="fill:none;fill-rule:nonzero;stroke:#d4a574;stroke-width:0.75px;"/><path d="M52.32,126.6c-0.77,0.44 -1.59,0.9 -2.52,1.43c-2.62,1.5 -2.5,1.55 -5.41,3.27c-1.67,0.99 -3.14,1.85 -4.48,2.62c3.98,2.23 5.25,3.38 9.57,5.36c0.6,0.28 1.45,0.65 2.49,1.07c0.87,-3.16 1.52,-5.3 2.45,-7.35c-0.76,-1.79 -1.34,-3.73 -2.08,-6.41l-0.02,0.01Z" style="fill:none;fill-rule:nonzero;stroke:#d4a574;stroke-width:0.75px;"/><path d="M109.5,126.77c-1.08,0.08 -2.9,0.24 -5.06,0.89c-1.81,0.55 -3.11,1.2 -5.32,2.42c-1.45,0.8 -2.74,1.54 -3.9,2.21c1.24,0.73 2.62,1.53 4.56,2.59c1.36,0.74 2.23,1.19 3.44,1.65c2.33,0.88 4.26,1.16 5.7,1.37c1.06,0.15 2.67,0.37 4.76,0.32c3.07,0 6.45,-0.97 8.85,-1.76c1.98,-0.8 2.8,-1.61 3.1,-1.9c0.36,-0.36 1.25,-1.26 1.33,-2.24c0.06,-0.79 -0.43,-1.43 -0.76,-1.84c-0.74,-0.92 -1.68,-1.4 -3.91,-2.12c-2.21,-0.71 -3.42,-1.1 -5.27,-1.37c-1.97,-0.29 -3.59,-0.29 -5.11,-0.28c-0.8,0 -1.49,0 -2.41,0.07l0,-0.01Z" style="fill:#d4a574;fill-rule:nonzero;"/><path d="M15.94,131.84c-2.79,0 -5.05,0.9 -5.05,2.02c0,1.12 2.26,2.02 5.05,2.02c2.79,0 5.05,-0.9 5.05,-2.02c0,-1.12 -2.26,-2.02 -5.05,-2.02Z" style="fill:#d4a574;fill-rule:nonzero;stroke:#d4a574;stroke-width:0.75px;"/><path d="M71.46,97.23c0.55,-1.44 0.85,-2.71 1.06,-3.82c-1.45,-3.38 -2.59,-6.86 -3.42,-10.4c-0.25,2.06 -1.01,3.57 -1.92,3.57c-1.12,0 -2.02,-2.26 -2.02,-5.05c0,-2.79 0.9,-5.05 2.02,-5.05c0.29,0 0.56,0.15 0.8,0.42c-0.15,-1.12 -0.27,-2.24 -0.35,-3.37c-0.12,-0.03 -0.25,-0.04 -0.38,-0.05c-1.62,-0.02 -2.8,1.96 -3.46,3.07c-0.26,0.43 -1.21,2.1 -1.81,5.86c-0.15,0.92 -0.5,3.39 -0.35,6.75c0.08,2 0.17,4.18 0.97,6.82c0.55,1.81 1.2,3.11 2.42,5.32c0.8,1.45 1.54,2.74 2.21,3.9c0.73,-1.24 1.53,-2.62 2.59,-4.56c0.74,-1.36 1.19,-2.23 1.65,-3.44l-0.01,0.03Z" style="fill:none;fill-rule:nonzero;stroke:#d4a574;stroke-width:0.75px;"/><path d="M68.11,119.45c1.8,-0.86 3.33,-1.4 6.23,-2.41c-1.01,-1.78 -2.31,-3.91 -4.1,-6.82c-0.77,-1.25 -1.79,-2.9 -3.01,-5c-0.68,1.16 -1.31,2.19 -2.02,3.44c-1.9,3.31 -3.18,5.93 -3.95,7.53c-0.08,0.17 -0.15,0.31 -0.23,0.47c1.64,0.66 3.91,1.67 6.48,3.07c0.2,-0.1 0.41,-0.2 0.6,-0.29l0,0.01Z" style="fill:none;fill-rule:nonzero;stroke:#d4a574;stroke-width:0.75px;"/><path d="M74.68,149.64c-2.94,-1.02 -4.48,-1.56 -6.29,-2.43c-0.29,-0.14 -0.6,-0.29 -0.9,-0.44c-2.04,1.12 -3.9,2 -5.42,2.66c0.24,0.42 0.47,0.83 0.74,1.29c1.5,2.62 1.55,2.5 3.27,5.41c0.99,1.67 1.85,3.14 2.62,4.48c2.23,-3.98 3.38,-5.26 5.36,-9.57c0.17,-0.38 0.39,-0.86 0.62,-1.41l0,0.01Z" style="fill:none;fill-rule:nonzero;stroke:#d4a574;stroke-width:0.75px;"/><path d="M68.69,160.62c-0.65,1.17 -1.39,2.56 -2.28,4.34c-1.57,3.14 -2.4,5.12 -3,7.66c-0.8,3.4 -0.8,6.17 -0.75,7.53c0.05,1.43 0.16,3.79 1.08,6.64c0.63,1.94 1.94,5.95 3.85,6.82c0.11,-1.25 0.26,-2.5 0.45,-3.74c-0.83,-0.63 -1.43,-2.53 -1.43,-4.81c0,-2.79 0.9,-5.05 2.02,-5.05c0.5,0 0.96,0.48 1.31,1.25c0.93,-3.12 2.11,-6.19 3.53,-9.17c-0.04,-0.21 -0.09,-0.4 -0.11,-0.52c-0.86,-3.75 -2.26,-6.71 -4.67,-10.95Z" style="fill:none;fill-rule:nonzero;stroke:#d4a574;stroke-width:0.75px;"/><path d="M36.35,158.34c-2.97,1.83 -4.93,3.79 -5.86,4.79c-0.97,1.04 -2.57,2.79 -3.93,5.46c-1.03,2.03 -3.3,6.48 -1.74,8.16c1.82,1.97 7.81,-1.04 8.47,-1.37c3.03,-1.52 4.96,-3.58 6.72,-5.46c2.32,-2.47 3.73,-4.67 4.11,-5.29c2.05,-3.26 3.15,-6.34 4.44,-11.05c-1.29,0.36 -2.79,0.82 -4.68,1.45c-3.33,1.12 -5.32,1.93 -7.54,3.29l0.01,0.02Zm-3.79,13.91c-1.97,1.97 -4.21,2.93 -5,2.14c-0.79,-0.79 0.17,-3.03 2.14,-5c1.97,-1.97 4.21,-2.93 5,-2.14c0.79,0.79 -0.17,3.03 -2.14,5Z" style="fill:none;fill-rule:nonzero;stroke:#d4a574;stroke-width:0.75px;"/><path d="M74.7,116.92c-0.13,0.04 -0.24,0.08 -0.36,0.12c0.85,1.5 1.51,2.77 2.07,4.05c0.37,0.84 0.7,1.61 1.01,2.35c0.15,0.05 0.3,0.1 0.45,0.16c1.78,0.63 3.19,1.29 5.68,2.5c0.49,-1.85 1.03,-4.09 1.74,-7.05c0.32,-1.34 0.73,-3.08 1.29,-5.24c-0.11,-0.11 -0.22,-0.21 -0.33,-0.31c-1.13,0.29 -2.19,0.56 -3.42,0.89c-3.69,1 -6.44,1.95 -8.12,2.53l-0.01,0Z" style="fill:none;fill-rule:nonzero;stroke:#d4a574;stroke-width:0.75px;"/><path d="M51.96,140.36c-0.18,0.64 -0.36,1.33 -0.57,2.07c-0.79,2.91 -0.67,2.87 -1.51,6.14c-0.48,1.88 -0.91,3.53 -1.32,5.02c4.39,-1.24 6.11,-1.32 10.56,-2.98c0.7,-0.26 1.72,-0.66 2.95,-1.19c-1.62,-2.84 -2.71,-4.83 -3.52,-6.82c-2.65,-0.75 -4.89,-1.56 -6.58,-2.25l-0.01,0.01Z" style="fill:none;fill-rule:nonzero;stroke:#d4a574;stroke-width:0.75px;"/><path d="M29.7,169.39c-1.97,1.97 -2.93,4.21 -2.14,5c0.79,0.79 3.03,-0.17 5,-2.14c1.97,-1.97 2.93,-4.21 2.14,-5c-0.79,-0.79 -3.03,0.17 -5,2.14Z" style="fill:#d4a574;fill-rule:nonzero;stroke:#d4a574;stroke-width:0.75px;"/><path d="M57.67,140.12c-0.18,-0.6 -0.38,-1.32 -0.58,-2.13c-0.66,-1 -1.17,-1.91 -1.56,-2.63c-0.43,-0.79 -0.8,-1.55 -1.13,-2.35c-0.93,2.04 -1.57,4.18 -2.45,7.35c1.7,0.69 3.94,1.5 6.58,2.25c-0.33,-0.8 -0.62,-1.61 -0.87,-2.48l0.01,-0.01Z" style="fill:none;fill-rule:nonzero;stroke:#d4a574;stroke-width:0.75px;"/><path d="M81.2,132.99c0.24,-0.6 0.49,-1.22 0.75,-1.89c0.58,-1.48 1.06,-3.01 1.59,-5c-2.49,-1.21 -3.9,-1.87 -5.68,-2.5c-0.15,-0.05 -0.3,-0.1 -0.45,-0.16c0.76,1.85 1.32,3.47 1.62,5.38c0.88,1.31 1.53,2.64 2.17,4.16l-0,0.01Z" style="fill:none;fill-rule:nonzero;stroke:#d4a574;stroke-width:0.75px;"/><path d="M62.23,143.59c-0.87,-0.21 -1.78,-0.46 -2.78,-0.72c-0.31,-0.08 -0.61,-0.17 -0.91,-0.26c0.81,1.99 1.9,3.98 3.52,6.82c1.52,-0.66 3.37,-1.53 5.42,-2.66c-1.62,-0.79 -3.41,-1.74 -5.25,-3.19l-0,0.01Z" style="fill:none;fill-rule:nonzero;stroke:#d4a574;stroke-width:0.75px;"/><path d="M71.15,121.85c2.46,0.32 4.49,0.99 6.27,1.61c-0.3,-0.74 -0.64,-1.51 -1.01,-2.35c-0.56,-1.29 -1.21,-2.55 -2.07,-4.05c-2.9,1 -4.44,1.54 -6.23,2.41c-0.2,0.09 -0.4,0.19 -0.6,0.29c0.48,0.26 0.98,0.54 1.48,0.83c0.77,0.45 1.48,0.86 2.16,1.27l0,-0.01Z" style="fill:none;fill-rule:nonzero;stroke:#d4a574;stroke-width:0.75px;"/><path d="M57.09,137.99c0.19,0.81 0.4,1.54 0.58,2.13c0.26,0.87 0.54,1.68 0.87,2.48c0.3,0.09 0.6,0.17 0.91,0.26c1,0.27 1.91,0.51 2.78,0.72c-0.39,-0.3 -0.78,-0.62 -1.17,-0.97c-1.77,-1.58 -3.03,-3.2 -3.97,-4.62Z" style="fill:none;fill-rule:nonzero;stroke:#d4a574;stroke-width:0.75px;"/><path d="M77.91,127.3c0.42,0.52 0.79,1.02 1.13,1.53c-0.3,-1.91 -0.86,-3.53 -1.62,-5.38c-1.77,-0.62 -3.8,-1.28 -6.27,-1.61c2.75,1.64 4.8,3.08 6.76,5.46Z" style="fill:none;fill-rule:nonzero;stroke:#d4a574;stroke-width:0.75px;"/><path d="M40.29,96.74c-1.76,-1.88 -3.69,-3.94 -6.72,-5.46c-0.66,-0.33 -6.65,-3.34 -8.47,-1.37c-1.55,1.68 0.71,6.13 1.74,8.16c1.36,2.67 2.96,4.42 3.93,5.46c0.93,1 2.89,2.96 5.86,4.79c2.22,1.37 4.21,2.18 7.54,3.29c1.88,0.63 3.39,1.09 4.68,1.45c-1.29,-4.71 -2.39,-7.79 -4.44,-11.05c-0.39,-0.62 -1.8,-2.81 -4.11,-5.29l-0.01,0.02Zm-5.23,3.3c-0.79,0.79 -3.03,-0.17 -5,-2.14c-1.97,-1.97 -2.93,-4.21 -2.14,-5c0.79,-0.79 3.03,0.17 5,2.14c1.97,1.97 2.93,4.21 2.14,5Z" style="fill:none;fill-rule:nonzero;stroke:#d4a574;stroke-width:0.75px;"/><path d="M58.38,122.66c0.65,-1.85 1.34,-3.3 2.64,-5.98c-0.64,-0.26 -1.19,-0.47 -1.62,-0.63c-4.45,-1.65 -6.17,-1.73 -10.56,-2.98c0.41,1.49 0.84,3.15 1.32,5.02c0.84,3.28 0.72,3.23 1.51,6.14c0.23,0.85 0.45,1.63 0.65,2.36c2.24,-1.26 3.96,-2.17 5.68,-2.87c0.13,-0.37 0.25,-0.73 0.37,-1.08l0.01,0.02Z" style="fill:none;fill-rule:nonzero;stroke:#d4a574;stroke-width:0.75px;"/><path d="M83.54,139.53c-1.54,0.87 -2.82,1.54 -4.13,2.11c-0.79,0.34 -1.52,0.66 -2.21,0.95c-0.87,2.98 -1.81,5.39 -2.52,7.05c0.1,0.04 0.19,0.07 0.3,0.1c1.68,0.58 4.44,1.53 8.12,2.53c1.39,0.38 2.38,0.49 3.68,0.82c-0.62,-2.35 -0.88,-4.06 -1.22,-5.48c-0.85,-3.53 -1.45,-6.04 -2.02,-8.08Z" style="fill:none;fill-rule:nonzero;stroke:#d4a574;stroke-width:0.75px;"/><path d="M27.92,92.9c-0.79,0.79 0.17,3.03 2.14,5c1.97,1.97 4.21,2.93 5,2.14c0.79,-0.79 -0.17,-3.03 -2.14,-5c-1.97,-1.97 -4.21,-2.93 -5,-2.14Z" style="fill:#d4a574;fill-rule:nonzero;stroke:#d4a574;stroke-width:0.75px;"/><path d="M55.26,131.31c0.37,-0.68 0.83,-1.51 1.43,-2.44c0.3,-1.96 0.81,-3.64 1.32,-5.13c-1.72,0.7 -3.44,1.6 -5.68,2.87c0.74,2.68 1.33,4.62 2.08,6.41c0.26,-0.57 0.54,-1.13 0.85,-1.71Z" style="fill:none;fill-rule:nonzero;stroke:#d4a574;stroke-width:0.75px;"/><path d="M81.2,132.99c-0.85,2.08 -1.64,3.78 -2.9,5.5c-0.2,0.81 -0.42,1.65 -0.67,2.58c-0.14,0.53 -0.28,1.03 -0.43,1.53c0.7,-0.29 1.42,-0.61 2.21,-0.95c1.31,-0.57 2.59,-1.23 4.13,-2.11c-0.42,-1.51 -0.83,-2.76 -1.31,-3.97c-0.36,-0.93 -0.7,-1.77 -1.03,-2.56l0,-0.02Z" style="fill:none;fill-rule:nonzero;stroke:#d4a574;stroke-width:0.75px;"/><path d="M71.81,144.25c-0.94,0.59 -1.96,1.18 -3.1,1.84c-0.42,0.24 -0.82,0.46 -1.22,0.69c0.31,0.15 0.61,0.3 0.9,0.44c1.81,0.87 3.35,1.41 6.29,2.43c0.71,-1.66 1.65,-4.07 2.52,-7.05c-1.86,0.77 -3.49,1.34 -5.4,1.66l0.01,-0.01Z" style="fill:none;fill-rule:nonzero;stroke:#d4a574;stroke-width:0.75px;"/><path d="M58,123.74c0.77,-0.31 1.55,-0.59 2.39,-0.83c0.75,-0.22 1.69,-0.49 2.8,-0.73c1.52,-1.03 2.98,-1.78 4.31,-2.43c-2.58,-1.4 -4.84,-2.4 -6.48,-3.07c-1.3,2.68 -1.99,4.13 -2.64,5.98c-0.12,0.35 -0.25,0.71 -0.37,1.08l-0.01,0Z" style="fill:none;fill-rule:nonzero;stroke:#d4a574;stroke-width:0.75px;"/><path d="M78.3,138.49c-0.21,0.29 -0.43,0.58 -0.67,0.87c-1.73,2.1 -3.53,3.46 -5.82,4.88c1.9,-0.31 3.53,-0.88 5.4,-1.66c0.15,-0.5 0.29,-1 0.43,-1.53c0.25,-0.92 0.47,-1.76 0.67,-2.58l-0.01,0.02Z" style="fill:none;fill-rule:nonzero;stroke:#d4a574;stroke-width:0.75px;"/><path d="M60.78,124.05c0.81,-0.73 1.62,-1.33 2.41,-1.87c-1.1,0.23 -2.04,0.5 -2.8,0.73c-0.84,0.25 -1.62,0.52 -2.39,0.83c-0.51,1.5 -1.02,3.17 -1.32,5.13c0.95,-1.47 2.25,-3.16 4.1,-4.82Z" style="fill:none;fill-rule:nonzero;stroke:#d4a574;stroke-width:0.75px;"/><path d="M79.04,128.83c0.06,0.38 0.11,0.76 0.15,1.17c0.3,3.02 -0.12,5.45 -0.88,8.49c1.26,-1.72 2.06,-3.41 2.9,-5.5c-0.64,-1.53 -1.29,-2.85 -2.17,-4.16Z" style="fill:none;fill-rule:nonzero;stroke:#d4a574;stroke-width:0.75px;"/><path d="M56.45,131.08c0.04,-0.78 0.13,-1.51 0.24,-2.22c-0.6,0.92 -1.06,1.76 -1.43,2.44c-0.31,0.58 -0.59,1.14 -0.85,1.71c0.33,0.79 0.7,1.56 1.13,2.35c0.39,0.73 0.9,1.63 1.56,2.63c-0.43,-1.81 -0.8,-4.12 -0.65,-6.91Z" style="fill:none;fill-rule:nonzero;stroke:#d4a574;stroke-width:0.75px;"/><path d="M69.43,121.68c0.6,0.03 1.16,0.09 1.72,0.17c-0.68,-0.41 -1.39,-0.82 -2.16,-1.27c-0.5,-0.29 -1,-0.57 -1.48,-0.83c-1.34,0.65 -2.79,1.39 -4.31,2.43c1.7,-0.36 3.79,-0.63 6.24,-0.5l-0.01,-0Z" style="fill:none;fill-rule:nonzero;stroke:#d4a574;stroke-width:0.75px;"/><path d="M71.81,144.25c-0.42,0.07 -0.84,0.13 -1.29,0.17c-2.95,0.29 -5.34,-0.1 -8.29,-0.83c1.85,1.44 3.64,2.4 5.25,3.19c0.4,-0.22 0.81,-0.44 1.22,-0.69c1.14,-0.66 2.16,-1.26 3.1,-1.84l0.01,0Z" style="fill:none;fill-rule:nonzero;stroke:#d4a574;stroke-width:0.75px;"/><path d="M70.52,144.42c0.45,-0.04 0.88,-0.1 1.29,-0.17c2.29,-1.42 4.09,-2.78 5.82,-4.88c0.24,-0.29 0.46,-0.58 0.67,-0.87c0.76,-3.04 1.18,-5.47 0.88,-8.49c-0.04,-0.4 -0.09,-0.79 -0.15,-1.17c-0.34,-0.51 -0.71,-1.02 -1.13,-1.53c-1.95,-2.38 -4.01,-3.81 -6.76,-5.46c-0.55,-0.07 -1.12,-0.13 -1.72,-0.17c-2.45,-0.14 -4.54,0.14 -6.24,0.5c-0.79,0.54 -1.59,1.15 -2.41,1.87c-1.85,1.66 -3.15,3.35 -4.1,4.82c-0.11,0.7 -0.19,1.44 -0.24,2.22c-0.16,2.79 0.22,5.1 0.65,6.91c0.94,1.42 2.2,3.04 3.97,4.62c0.39,0.35 0.78,0.67 1.17,0.97c2.94,0.73 5.34,1.12 8.29,0.83l0.01,-0Zm-5.59,-8.7c-1.38,-1.38 -1.38,-3.62 0,-5c1.38,-1.38 3.62,-1.38 5,0c1.38,1.38 1.38,3.62 0,5c-1.38,1.38 -3.62,1.38 -5,0Z" style="fill:none;fill-rule:nonzero;stroke:#d4a574;stroke-width:0.75px;"/><path d="M69.93,130.73c-1.38,-1.38 -3.62,-1.38 -5,0c-1.38,1.38 -1.38,3.62 0,5c1.38,1.38 3.62,1.38 5,0c1.38,-1.38 1.38,-3.62 0,-5Z" style="fill:#d4a574;fill-rule:nonzero;stroke:#d4a574;stroke-width:0.75px;"/><path d="M68.63,180c-1.12,0 -2.02,2.26 -2.02,5.05c0,2.27 0.6,4.17 1.43,4.81c0.43,-2.9 1.07,-5.78 1.9,-8.61c-0.35,-0.77 -0.81,-1.25 -1.31,-1.25Z" style="fill:#d4a574;fill-rule:nonzero;stroke:#d4a574;stroke-width:0.75px;"/><path d="M67.18,76.49c-1.12,0 -2.02,2.26 -2.02,5.05c0,2.79 0.9,5.05 2.02,5.05c0.91,0 1.67,-1.51 1.92,-3.57c-0.47,-2.02 -0.85,-4.06 -1.12,-6.11c-0.25,-0.27 -0.52,-0.42 -0.8,-0.42Z" style="fill:#d4a574;fill-rule:nonzero;stroke:#d4a574;stroke-width:0.75px;"/><path d="M124.62,182.18c0.08,-0.16 0.15,-0.3 0.23,-0.47c0.78,-1.6 2.06,-4.22 3.96,-7.53c0.72,-1.25 1.34,-2.29 2.02,-3.44c-0.68,-1.16 -1.42,-2.45 -2.21,-3.9c-1.22,-2.21 -1.87,-3.51 -2.42,-5.32c-0.44,-1.44 -0.66,-2.74 -0.79,-3.95c-2.97,7.32 -7.38,14.18 -13.21,20.18c0.08,0.28 0.16,0.55 0.23,0.84c4.39,1.24 6.11,1.32 10.56,2.97c0.43,0.16 0.98,0.37 1.62,0.63l0.01,-0.01Z" style="fill:none;fill-rule:nonzero;stroke:#d4a574;stroke-width:0.75px;"/><path d="M113.4,193.53c0.93,-0.53 1.75,-1 2.52,-1.43c-0.2,-0.73 -0.42,-1.51 -0.65,-2.36c-0.79,-2.91 -0.67,-2.87 -1.51,-6.14c-0.48,-1.88 -0.91,-3.53 -1.32,-5.02c-0.26,-0.07 -0.53,-0.15 -0.81,-0.23c-0.03,0.03 -0.05,0.06 -0.08,0.08c-7.03,7.03 -15.3,12.04 -24.11,15.07c1.19,0.11 2.56,0.3 4.07,0.66c2.54,0.6 4.51,1.43 7.66,3c1.78,0.89 3.17,1.63 4.34,2.28c1.34,-0.77 2.82,-1.63 4.48,-2.62c2.91,-1.72 2.8,-1.78 5.41,-3.27l0,-0.02Z" style="fill:none;fill-rule:nonzero;stroke:#d4a574;stroke-width:0.75px;"/><path d="M129.98,136.13c-0.04,1.05 -0.1,2.1 -0.19,3.15c0.33,-0.18 0.68,-0.29 1.06,-0.28l0.05,0c-0.07,-0.8 0,0.99 -0.18,-2.88l-0.73,0l-0.01,0.01Z" style="fill:none;fill-rule:nonzero;stroke:#d4a574;stroke-width:0.75px;"/><path d="M147.14,191.6c0.25,0.12 0.5,0.24 0.77,0.37c1.6,0.78 4.22,2.06 7.53,3.95c1.25,0.72 2.29,1.34 3.44,2.02c1.16,-0.68 2.45,-1.41 3.9,-2.21c2.21,-1.22 3.51,-1.87 5.32,-2.42c1.11,-0.34 2.14,-0.54 3.11,-0.68c-7.62,-2.92 -14.79,-7.36 -21.04,-13.34c-0.56,2.16 -0.97,3.91 -1.29,5.25c-0.71,2.96 -1.25,5.2 -1.74,7.05l-0,0.01Z" style="fill:none;fill-rule:nonzero;stroke:#d4a574;stroke-width:0.75px;"/><path d="M133.41,166.17c-1.06,1.94 -1.86,3.32 -2.59,4.56c1.23,2.1 2.25,3.75 3.01,5c1.79,2.92 3.09,5.04 4.1,6.82c0.12,-0.04 0.23,-0.08 0.36,-0.12c1.68,-0.58 4.44,-1.53 8.12,-2.53c1.24,-0.34 2.3,-0.6 3.44,-0.89c-0.23,-0.22 -0.47,-0.44 -0.7,-0.66c-5.68,-5.68 -10.03,-12.18 -13.1,-19.11c-0.21,1.04 -0.5,2.2 -1,3.5c-0.46,1.21 -0.91,2.07 -1.65,3.44l0.01,-0.01Z" style="fill:none;fill-rule:nonzero;stroke:#d4a574;stroke-width:0.75px;"/><path d="M190.62,197.98c-0.01,0.91 -0.66,1.57 -1.33,2.24c-0.4,0.4 -1.73,1.69 -5.5,2.69c-2.88,0.77 -5.09,0.91 -5.57,0.93c-2.53,0.14 -4.44,-0.11 -5.65,-0.28c-1.44,-0.2 -3.36,-0.48 -5.7,-1.37c-1.21,-0.46 -2.07,-0.91 -3.44,-1.65c-1.94,-1.06 -3.32,-1.86 -4.56,-2.59c-2.1,1.23 -3.75,2.25 -5,3.01c-2.88,1.76 -4.98,3.05 -6.75,4.06c0.57,2.04 1.18,4.55 2.02,8.08c0.34,1.43 0.79,3.31 1.4,5.66c1.39,0.36 2.93,0.77 5.06,1.39c1.49,0.44 2.42,0.73 3.6,1.27c2.27,1.02 3.83,2.19 4.99,3.06c0.98,0.74 2.51,1.91 4.19,3.8c0.32,0.36 1.78,2.02 3.28,4.6c1.96,3.38 1.98,5.23 1.98,5.79c0,0.95 0,1.87 -0.64,2.52c-1.13,1.16 -3.37,0.59 -4.62,0.27c-0.49,-0.12 -2.34,-0.63 -5.43,-2.87c-0.75,-0.54 -2.75,-2.04 -5.03,-4.52c-1.35,-1.47 -2.84,-3.07 -4.14,-5.51c-0.89,-1.67 -1.35,-3.05 -2.05,-5.47c-0.46,-1.59 -0.85,-3.03 -1.19,-4.32c-1.3,-0.33 -2.47,-0.63 -3.87,-1c-3.69,-1 -6.44,-1.95 -8.12,-2.53c-0.11,-0.04 -0.2,-0.07 -0.3,-0.1c-0.24,0.55 -0.45,1.03 -0.62,1.41c-1.98,4.31 -3.13,5.59 -5.36,9.57c2.42,4.24 3.82,7.2 4.67,10.95c0.16,0.71 0.72,3.26 0.83,6.65c0.08,2.57 0.17,5.4 -0.89,8.62c-0.23,0.7 -2.34,7.06 -5.02,6.96c-2.28,-0.09 -3.83,-4.83 -4.54,-7c-0.93,-2.85 -1.03,-5.21 -1.08,-6.64c-0.05,-1.37 -0.05,-4.14 0.75,-7.53c0.6,-2.54 1.43,-4.51 3,-7.66c0.89,-1.78 1.63,-3.17 2.28,-4.34c-0.77,-1.34 -1.63,-2.82 -2.62,-4.48c-1.72,-2.91 -1.78,-2.8 -3.27,-5.41c-0.26,-0.46 -0.5,-0.87 -0.73,-1.29c-1.23,0.53 -2.25,0.93 -2.95,1.19c-4.45,1.65 -6.17,1.73 -10.56,2.98c-1.29,4.71 -2.39,7.79 -4.44,11.05c-0.39,0.62 -1.8,2.81 -4.11,5.29c-1.76,1.88 -3.69,3.94 -6.73,5.46c-0.66,0.33 -6.65,3.34 -8.47,1.37c-1.55,-1.68 0.71,-6.13 1.74,-8.16c1.36,-2.67 2.96,-4.42 3.93,-5.46c0.93,-1 2.89,-2.96 5.86,-4.79c2.22,-1.37 4.21,-2.18 7.54,-3.29c1.89,-0.63 3.39,-1.09 4.68,-1.45c0.41,-1.49 0.84,-3.15 1.32,-5.02c0.84,-3.28 0.72,-3.23 1.51,-6.14c0.2,-0.74 0.39,-1.42 0.57,-2.07c-1.04,-0.42 -1.89,-0.8 -2.49,-1.07c-4.31,-1.98 -5.59,-3.13 -9.57,-5.36c-4.24,2.42 -7.2,3.82 -10.95,4.67c-0.71,0.16 -3.26,0.72 -6.65,0.83c-2.57,0.08 -5.4,0.17 -8.62,-0.89c-0.7,-0.23 -7.06,-2.34 -6.96,-5.02c0.03,-0.89 0.78,-1.66 1.79,-2.32c-1.58,0.13 -3.15,0.21 -4.73,0.22c-0.63,16.94 5.51,34.08 18.44,47.01c24.66,24.66 64.65,24.66 89.31,0c12.95,-12.95 19.09,-30.13 18.44,-47.1c-1.12,0 -2.24,-0.04 -3.36,-0.11c0.25,0.39 0.42,0.81 0.41,1.26l0.02,-0.05Z" style="fill:none;fill-rule:nonzero;stroke:#d4a574;stroke-width:0.75px;"/><path d="M115.92,192.1c-0.77,0.44 -1.59,0.9 -2.52,1.43c-2.62,1.5 -2.5,1.55 -5.41,3.27c-1.67,0.99 -3.14,1.85 -4.48,2.62c3.98,2.23 5.25,3.38 9.57,5.36c0.6,0.28 1.45,0.65 2.49,1.07c0.87,-3.16 1.52,-5.3 2.45,-7.35c-0.76,-1.79 -1.34,-3.73 -2.08,-6.41l-0.02,0.01Z" style="fill:none;fill-rule:nonzero;stroke:#d4a574;stroke-width:0.75px;"/><path d="M162.79,195.74c-1.45,0.8 -2.74,1.54 -3.9,2.21c1.24,0.73 2.62,1.53 4.56,2.59c1.36,0.74 2.23,1.19 3.44,1.65c2.33,0.88 4.26,1.16 5.7,1.37c1.21,0.17 3.12,0.43 5.65,0.28c0.48,-0.03 2.69,-0.17 5.57,-0.93c3.77,-1 5.1,-2.3 5.5,-2.69c0.67,-0.67 1.32,-1.33 1.33,-2.24c0,-0.46 -0.16,-0.88 -0.41,-1.26c-1.64,-0.09 -3.27,-0.25 -4.9,-0.47c1.25,0.37 2.06,0.95 2.06,1.62c0,1.12 -2.26,2.02 -5.05,2.02c-2.79,0 -5.05,-0.9 -5.05,-2.02c0,-1.12 2.26,-2.02 5.05,-2.02c0.21,0 0.4,0.01 0.6,0.02c-3.98,-0.69 -7.9,-1.77 -11.72,-3.23c-0.97,0.14 -2,0.34 -3.11,0.68c-1.81,0.55 -3.11,1.2 -5.32,2.42Z" style="fill:none;fill-rule:nonzero;stroke:#d4a574;stroke-width:0.75px;"/><path d="M91.5,194.14c-1.51,-0.36 -2.88,-0.55 -4.07,-0.66c-4.98,1.71 -10.12,2.77 -15.31,3.2c-1.02,0.66 -1.76,1.43 -1.79,2.32c-0.11,2.68 6.26,4.79 6.96,5.02c3.22,1.07 6.04,0.98 8.62,0.89c3.39,-0.11 5.93,-0.67 6.65,-0.83c3.75,-0.86 6.71,-2.26 10.95,-4.67c-1.17,-0.65 -2.56,-1.39 -4.34,-2.28c-3.14,-1.57 -5.12,-2.4 -7.66,-3l-0.01,0.01Zm-11.97,7.23c-2.79,0 -5.05,-0.9 -5.05,-2.02c0,-1.12 2.26,-2.02 5.05,-2.02c2.79,0 5.05,0.9 5.05,2.02c0,1.12 -2.26,2.02 -5.05,2.02Z" style="fill:none;fill-rule:nonzero;stroke:#d4a574;stroke-width:0.75px;"/><path d="M147.91,191.98c-0.27,-0.13 -0.52,-0.25 -0.77,-0.37c-0.53,1.99 -1.01,3.52 -1.59,5c-0.26,0.67 -0.51,1.29 -0.75,1.89c0.33,0.79 0.67,1.63 1.03,2.56c0.48,1.21 0.88,2.47 1.31,3.97c1.77,-1.01 3.87,-2.3 6.75,-4.06c1.25,-0.77 2.9,-1.79 5,-3.01c-1.16,-0.68 -2.19,-1.31 -3.44,-2.02c-3.31,-1.9 -5.93,-3.18 -7.53,-3.95l-0.01,-0.01Z" style="fill:none;fill-rule:nonzero;stroke:#d4a574;stroke-width:0.75px;"/><path d="M79.53,197.33c-2.79,0 -5.05,0.9 -5.05,2.02c0,1.12 2.26,2.02 5.05,2.02c2.79,0 5.05,-0.9 5.05,-2.02c0,-1.12 -2.26,-2.02 -5.05,-2.02Z" style="fill:#d4a574;fill-rule:nonzero;stroke:#d4a574;stroke-width:0.75px;"/><path d="M182.33,195.85c-2.79,0 -5.05,0.9 -5.05,2.02c0,1.12 2.26,2.02 5.05,2.02c2.79,0 5.05,-0.9 5.05,-2.02c0,-0.67 -0.82,-1.25 -2.06,-1.62c-0.8,-0.11 -1.59,-0.24 -2.38,-0.37c-0.2,0 -0.4,-0.02 -0.6,-0.02l-0.01,-0.01Z" style="fill:#d4a574;fill-rule:nonzero;stroke:#d4a574;stroke-width:0.75px;"/><path d="M185.31,196.25c-0.68,-0.2 -1.5,-0.33 -2.38,-0.37c0.79,0.14 1.59,0.27 2.38,0.37Z" style="fill:#d4a574;fill-rule:nonzero;stroke:#d4a574;stroke-width:0.75px;"/><path d="M127.01,238.11c-0.8,3.4 -0.8,6.17 -0.75,7.53c0.05,1.42 0.16,3.79 1.08,6.64c0.71,2.17 2.25,6.91 4.54,7c2.68,0.11 4.79,-6.26 5.02,-6.96c1.07,-3.22 0.98,-6.04 0.89,-8.62c-0.11,-3.39 -0.67,-5.93 -0.83,-6.65c-0.86,-3.75 -2.26,-6.71 -4.67,-10.95c-0.65,1.17 -1.39,2.56 -2.28,4.34c-1.56,3.14 -2.4,5.12 -3,7.66l0,0.01Zm5.22,7.39c1.12,0 2.02,2.26 2.02,5.05c0,2.79 -0.9,5.05 -2.02,5.05c-1.12,0 -2.02,-2.26 -2.02,-5.05c0,-2.79 0.9,-5.05 2.02,-5.05Z" style="fill:none;fill-rule:nonzero;stroke:#d4a574;stroke-width:0.75px;"/><path d="M130.82,170.73c-0.68,1.16 -1.31,2.19 -2.02,3.44c-1.9,3.31 -3.18,5.93 -3.96,7.53c-0.08,0.17 -0.15,0.31 -0.23,0.47c1.64,0.66 3.91,1.67 6.48,3.07c0.2,-0.1 0.41,-0.2 0.6,-0.29c1.8,-0.86 3.33,-1.4 6.23,-2.41c-1.01,-1.78 -2.31,-3.9 -4.1,-6.82c-0.77,-1.25 -1.79,-2.9 -3.01,-5l0.01,0.01Z" style="fill:none;fill-rule:nonzero;stroke:#d4a574;stroke-width:0.75px;"/><path d="M131.08,212.27c-2.04,1.12 -3.9,2 -5.42,2.66c0.24,0.42 0.47,0.83 0.73,1.29c1.5,2.62 1.55,2.5 3.27,5.41c0.99,1.67 1.85,3.14 2.62,4.48c2.23,-3.98 3.38,-5.25 5.36,-9.57c0.17,-0.38 0.39,-0.86 0.62,-1.41c-2.94,-1.02 -4.48,-1.56 -6.29,-2.43c-0.29,-0.14 -0.6,-0.29 -0.9,-0.44l0.01,0.01Z" style="fill:none;fill-rule:nonzero;stroke:#d4a574;stroke-width:0.75px;"/><path d="M99.94,223.84c-2.97,1.83 -4.93,3.79 -5.86,4.79c-0.97,1.04 -2.57,2.79 -3.93,5.46c-1.03,2.03 -3.3,6.48 -1.74,8.16c1.82,1.97 7.81,-1.04 8.47,-1.37c3.03,-1.52 4.96,-3.58 6.73,-5.46c2.32,-2.47 3.73,-4.67 4.11,-5.29c2.05,-3.26 3.15,-6.34 4.44,-11.05c-1.29,0.36 -2.79,0.82 -4.68,1.45c-3.33,1.12 -5.32,1.93 -7.54,3.29l0,0.02Zm-3.79,13.91c-1.97,1.97 -4.21,2.93 -5,2.14c-0.79,-0.79 0.17,-3.03 2.14,-5c1.97,-1.97 4.21,-2.93 5,-2.14c0.79,0.79 -0.17,3.03 -2.14,5Z" style="fill:none;fill-rule:nonzero;stroke:#d4a574;stroke-width:0.75px;"/><path d="M146.42,179.89c-3.69,1 -6.44,1.95 -8.12,2.53c-0.13,0.04 -0.24,0.08 -0.36,0.12c0.86,1.5 1.51,2.77 2.07,4.05c0.37,0.84 0.7,1.61 1.01,2.35c0.15,0.05 0.3,0.1 0.44,0.16c1.78,0.63 3.19,1.29 5.68,2.5c0.49,-1.85 1.03,-4.09 1.74,-7.05c0.32,-1.34 0.73,-3.09 1.29,-5.25c-0.11,-0.1 -0.21,-0.2 -0.32,-0.3c-1.13,0.29 -2.2,0.56 -3.44,0.89l0.01,0Z" style="fill:none;fill-rule:nonzero;stroke:#d4a574;stroke-width:0.75px;"/><path d="M115.56,205.86c-0.18,0.64 -0.36,1.33 -0.57,2.07c-0.79,2.91 -0.67,2.87 -1.51,6.14c-0.48,1.88 -0.91,3.53 -1.32,5.02c4.39,-1.24 6.11,-1.32 10.56,-2.98c0.7,-0.26 1.72,-0.66 2.95,-1.19c-1.62,-2.84 -2.71,-4.83 -3.52,-6.82c-2.65,-0.75 -4.89,-1.56 -6.58,-2.25l-0.01,0.01Z" style="fill:none;fill-rule:nonzero;stroke:#d4a574;stroke-width:0.75px;"/><path d="M93.3,234.89c-1.97,1.97 -2.93,4.21 -2.14,5c0.79,0.79 3.03,-0.17 5,-2.14c1.97,-1.97 2.93,-4.21 2.14,-5c-0.79,-0.79 -3.03,0.17 -5,2.14Z" style="fill:#d4a574;fill-rule:nonzero;stroke:#d4a574;stroke-width:0.75px;"/><path d="M144.8,198.49c0.24,-0.6 0.49,-1.22 0.75,-1.89c0.58,-1.48 1.06,-3.01 1.59,-5c-2.49,-1.21 -3.9,-1.87 -5.68,-2.5c-0.15,-0.05 -0.3,-0.1 -0.44,-0.16c0.76,1.85 1.32,3.47 1.62,5.38c0.88,1.31 1.53,2.64 2.17,4.16l-0.01,0.01Z" style="fill:none;fill-rule:nonzero;stroke:#d4a574;stroke-width:0.75px;"/><path d="M121.27,205.62c-0.18,-0.6 -0.38,-1.32 -0.58,-2.13c-0.66,-1 -1.16,-1.91 -1.56,-2.63c-0.43,-0.79 -0.8,-1.55 -1.13,-2.35c-0.93,2.04 -1.57,4.18 -2.45,7.35c1.7,0.69 3.94,1.5 6.58,2.25c-0.33,-0.8 -0.62,-1.61 -0.87,-2.48l0.01,-0.01Z" style="fill:none;fill-rule:nonzero;stroke:#d4a574;stroke-width:0.75px;"/><path d="M131.1,185.24c0.48,0.26 0.98,0.54 1.48,0.83c0.77,0.45 1.48,0.86 2.16,1.27c2.46,0.32 4.49,0.99 6.27,1.61c-0.3,-0.74 -0.64,-1.51 -1.01,-2.35c-0.56,-1.29 -1.21,-2.55 -2.07,-4.05c-2.9,1 -4.44,1.54 -6.23,2.41c-0.2,0.09 -0.4,0.19 -0.6,0.29l-0,-0.01Z" style="fill:none;fill-rule:nonzero;stroke:#d4a574;stroke-width:0.75px;"/><path d="M125.83,209.08c-0.87,-0.22 -1.78,-0.46 -2.78,-0.72c-0.31,-0.08 -0.61,-0.17 -0.91,-0.26c0.81,1.99 1.91,3.98 3.52,6.82c1.52,-0.66 3.37,-1.53 5.42,-2.66c-1.62,-0.79 -3.41,-1.74 -5.25,-3.19l0,0.01Z" style="fill:none;fill-rule:nonzero;stroke:#d4a574;stroke-width:0.75px;"/><path d="M141.5,192.8c0.42,0.52 0.79,1.02 1.13,1.53c-0.3,-1.91 -0.86,-3.53 -1.62,-5.38c-1.77,-0.62 -3.8,-1.28 -6.27,-1.61c2.75,1.64 4.8,3.08 6.76,5.46Z" style="fill:none;fill-rule:nonzero;stroke:#d4a574;stroke-width:0.75px;"/><path d="M120.69,203.49c0.19,0.81 0.4,1.54 0.58,2.13c0.26,0.87 0.54,1.68 0.87,2.48c0.3,0.09 0.6,0.17 0.91,0.26c1,0.27 1.91,0.51 2.78,0.72c-0.39,-0.3 -0.78,-0.62 -1.17,-0.97c-1.77,-1.58 -3.03,-3.2 -3.97,-4.62Z" style="fill:none;fill-rule:nonzero;stroke:#d4a574;stroke-width:0.75px;"/><path d="M153.81,228.57c1.3,2.44 2.79,4.04 4.14,5.51c2.28,2.48 4.28,3.98 5.03,4.52c3.08,2.24 4.94,2.74 5.43,2.87c1.25,0.32 3.49,0.89 4.62,-0.27c0.63,-0.65 0.64,-1.57 0.64,-2.52c0,-0.56 -0.03,-2.41 -1.98,-5.79c-1.49,-2.58 -2.96,-4.24 -3.28,-4.6c-1.69,-1.89 -3.22,-3.06 -4.19,-3.8c-1.16,-0.88 -2.72,-2.04 -4.99,-3.06c-1.18,-0.53 -2.11,-0.83 -3.6,-1.27c-2.12,-0.63 -3.66,-1.04 -5.06,-1.39c0.34,1.3 0.73,2.73 1.19,4.32c0.7,2.42 1.16,3.81 2.05,5.47l0,0.01Zm9.96,3.19c0.79,-0.79 3.03,0.17 5,2.14c1.97,1.97 2.93,4.21 2.14,5c-0.79,0.79 -3.03,-0.17 -5,-2.14c-1.97,-1.97 -2.93,-4.21 -2.14,-5Z" style="fill:none;fill-rule:nonzero;stroke:#d4a574;stroke-width:0.75px;"/><path d="M121.97,188.15c0.65,-1.85 1.34,-3.3 2.64,-5.98c-0.64,-0.26 -1.19,-0.47 -1.62,-0.63c-4.45,-1.65 -6.17,-1.73 -10.56,-2.97c0.41,1.49 0.84,3.15 1.32,5.02c0.84,3.28 0.72,3.23 1.51,6.14c0.23,0.85 0.45,1.63 0.65,2.36c2.24,-1.26 3.96,-2.17 5.68,-2.87c0.13,-0.37 0.25,-0.73 0.37,-1.08l0.01,0.01Z" style="fill:none;fill-rule:nonzero;stroke:#d4a574;stroke-width:0.75px;"/><path d="M112.2,177.73c-0.2,0.2 -0.38,0.41 -0.58,0.61c0.28,0.08 0.55,0.16 0.81,0.23c-0.08,-0.29 -0.16,-0.57 -0.23,-0.84Z" style="fill:none;fill-rule:nonzero;stroke:#d4a574;stroke-width:0.75px;"/><path d="M140.8,208.09c-0.87,2.98 -1.81,5.39 -2.52,7.05c0.1,0.04 0.19,0.07 0.3,0.1c1.68,0.58 4.44,1.53 8.12,2.53c1.39,0.38 2.56,0.67 3.87,1c-0.62,-2.35 -1.06,-4.24 -1.4,-5.66c-0.85,-3.53 -1.45,-6.04 -2.02,-8.08c-1.54,0.88 -2.82,1.54 -4.13,2.11c-0.79,0.34 -1.52,0.66 -2.21,0.95l-0.01,0Z" style="fill:none;fill-rule:nonzero;stroke:#d4a574;stroke-width:0.75px;"/><path d="M170.91,238.9c0.79,-0.79 -0.17,-3.03 -2.14,-5c-1.97,-1.97 -4.21,-2.93 -5,-2.14c-0.79,0.79 0.17,3.03 2.14,5c1.97,1.97 4.21,2.93 5,2.14Z" style="fill:#d4a574;fill-rule:nonzero;stroke:#d4a574;stroke-width:0.75px;"/><path d="M120.28,194.37c0.3,-1.96 0.81,-3.64 1.32,-5.13c-1.72,0.7 -3.44,1.6 -5.68,2.87c0.74,2.68 1.33,4.62 2.08,6.41c0.26,-0.57 0.54,-1.13 0.85,-1.71c0.37,-0.68 0.83,-1.51 1.43,-2.44Z" style="fill:none;fill-rule:nonzero;stroke:#d4a574;stroke-width:0.75px;"/><path d="M144.8,198.49c-0.85,2.08 -1.64,3.78 -2.9,5.5c-0.2,0.81 -0.42,1.65 -0.67,2.58c-0.14,0.53 -0.28,1.03 -0.43,1.53c0.7,-0.29 1.42,-0.61 2.21,-0.95c1.31,-0.57 2.59,-1.23 4.13,-2.11c-0.42,-1.51 -0.83,-2.76 -1.31,-3.97c-0.36,-0.93 -0.7,-1.77 -1.03,-2.56l0,-0.02Z" style="fill:none;fill-rule:nonzero;stroke:#d4a574;stroke-width:0.75px;"/><path d="M121.6,189.23c0.77,-0.31 1.55,-0.59 2.39,-0.83c0.75,-0.22 1.69,-0.49 2.79,-0.73c1.52,-1.03 2.98,-1.78 4.31,-2.43c-2.58,-1.4 -4.84,-2.4 -6.48,-3.07c-1.3,2.68 -1.99,4.13 -2.64,5.98c-0.12,0.35 -0.25,0.71 -0.37,1.08Z" style="fill:none;fill-rule:nonzero;stroke:#d4a574;stroke-width:0.75px;"/><path d="M135.4,209.74c-0.94,0.59 -1.96,1.18 -3.1,1.84c-0.42,0.24 -0.82,0.46 -1.22,0.69c0.31,0.15 0.61,0.3 0.9,0.44c1.81,0.87 3.35,1.41 6.29,2.43c0.71,-1.66 1.65,-4.07 2.52,-7.05c-1.86,0.77 -3.49,1.34 -5.4,1.66l0.01,-0.01Z" style="fill:none;fill-rule:nonzero;stroke:#d4a574;stroke-width:0.75px;"/><path d="M135.4,209.74c1.9,-0.31 3.53,-0.88 5.4,-1.66c0.15,-0.5 0.29,-1 0.43,-1.53c0.25,-0.92 0.47,-1.76 0.67,-2.58c-0.21,0.29 -0.43,0.58 -0.67,0.87c-1.73,2.1 -3.53,3.46 -5.82,4.88l-0.01,0.02Z" style="fill:none;fill-rule:nonzero;stroke:#d4a574;stroke-width:0.75px;"/><path d="M121.6,189.23c-0.51,1.5 -1.02,3.17 -1.32,5.13c0.95,-1.47 2.25,-3.16 4.1,-4.82c0.81,-0.73 1.62,-1.33 2.41,-1.87c-1.1,0.23 -2.04,0.5 -2.79,0.73c-0.84,0.25 -1.62,0.52 -2.39,0.83l-0.01,0Z" style="fill:none;fill-rule:nonzero;stroke:#d4a574;stroke-width:0.75px;"/><path d="M120.04,196.58c0.04,-0.78 0.13,-1.51 0.24,-2.22c-0.6,0.92 -1.06,1.76 -1.43,2.44c-0.31,0.58 -0.59,1.14 -0.85,1.71c0.33,0.79 0.7,1.56 1.13,2.35c0.39,0.73 0.9,1.63 1.56,2.63c-0.43,-1.81 -0.8,-4.12 -0.65,-6.91Z" style="fill:none;fill-rule:nonzero;stroke:#d4a574;stroke-width:0.75px;"/><path d="M142.78,195.5c0.3,3.02 -0.12,5.45 -0.88,8.49c1.26,-1.72 2.06,-3.41 2.9,-5.5c-0.64,-1.53 -1.29,-2.85 -2.17,-4.16c0.06,0.38 0.11,0.76 0.15,1.17Z" style="fill:none;fill-rule:nonzero;stroke:#d4a574;stroke-width:0.75px;"/><path d="M125.83,209.08c1.85,1.44 3.64,2.4 5.25,3.19c0.4,-0.22 0.81,-0.44 1.22,-0.69c1.14,-0.66 2.16,-1.26 3.1,-1.84c-0.42,0.07 -0.84,0.13 -1.29,0.17c-2.95,0.29 -5.34,-0.1 -8.29,-0.83l0.01,0Z" style="fill:none;fill-rule:nonzero;stroke:#d4a574;stroke-width:0.75px;"/><path d="M133.03,187.18c0.6,0.03 1.16,0.1 1.71,0.17c-0.68,-0.41 -1.39,-0.82 -2.16,-1.27c-0.5,-0.29 -1,-0.57 -1.48,-0.83c-1.33,0.65 -2.79,1.39 -4.31,2.43c1.7,-0.36 3.79,-0.63 6.24,-0.5Z" style="fill:none;fill-rule:nonzero;stroke:#d4a574;stroke-width:0.75px;"/><path d="M142.78,195.5c-0.04,-0.4 -0.09,-0.79 -0.15,-1.17c-0.34,-0.51 -0.71,-1.02 -1.13,-1.53c-1.95,-2.38 -4.01,-3.81 -6.76,-5.46c-0.55,-0.07 -1.12,-0.13 -1.71,-0.17c-2.45,-0.14 -4.54,0.14 -6.24,0.5c-0.79,0.54 -1.59,1.15 -2.41,1.87c-1.85,1.66 -3.15,3.35 -4.1,4.82c-0.11,0.7 -0.19,1.44 -0.24,2.22c-0.16,2.79 0.22,5.1 0.65,6.91c0.94,1.42 2.2,3.04 3.97,4.62c0.39,0.35 0.78,0.67 1.17,0.97c2.94,0.73 5.34,1.12 8.29,0.83c0.45,-0.04 0.87,-0.1 1.29,-0.17c2.29,-1.42 4.09,-2.78 5.82,-4.88c0.24,-0.29 0.46,-0.58 0.67,-0.87c0.76,-3.04 1.18,-5.47 0.88,-8.49Zm-9.25,5.72c-1.38,1.38 -3.62,1.38 -5,0c-1.38,-1.38 -1.38,-3.62 0,-5c1.38,-1.38 3.62,-1.38 5,0c1.38,1.38 1.38,3.62 0,5Z" style="fill:none;fill-rule:nonzero;stroke:#d4a574;stroke-width:0.75px;"/><path d="M128.53,196.22c-1.38,1.38 -1.38,3.62 0,5c1.38,1.38 3.62,1.38 5,0c1.38,-1.38 1.38,-3.62 0,-5c-1.38,-1.38 -3.62,-1.38 -5,0Z" style="fill:#d4a574;fill-rule:nonzero;stroke:#d4a574;stroke-width:0.75px;"/><path d="M132.23,255.6c1.12,0 2.02,-2.26 2.02,-5.05c0,-2.79 -0.9,-5.05 -2.02,-5.05c-1.12,0 -2.02,2.26 -2.02,5.05c0,2.79 0.9,5.05 2.02,5.05Z" style="fill:#d4a574;fill-rule:nonzero;stroke:#d4a574;stroke-width:0.75px;"/><path d="M130.71,131.68c0.03,-1.05 0.09,-2.1 0.18,-3.14c-0.04,0 -0.07,0.01 -0.1,0c-0.35,-0.02 -0.68,-0.16 -1,-0.38c0.1,1.17 0.17,2.33 0.21,3.5c0.24,0 0.48,0.01 0.72,0.01l-0.01,0.01Z" style="fill:none;fill-rule:nonzero;stroke:#d4a574;stroke-width:1px;"/><g><path d="M146.77,87.03c-3.69,-1 -6.44,-1.95 -8.12,-2.53c-0.18,-0.06 -0.35,-0.12 -0.52,-0.18c-0.29,0.64 -0.54,1.18 -0.75,1.61c-2.06,4.27 -3.24,5.52 -5.55,9.46c2.33,4.28 3.68,7.27 4.46,11.04c0.03,0.17 0.09,0.44 0.15,0.8c3.04,-6.59 7.27,-12.77 12.7,-18.2c0.37,-0.37 0.76,-0.72 1.13,-1.08c-1.16,-0.3 -2.25,-0.57 -3.52,-0.91l0.02,-0.01Z" style="fill:none;fill-rule:nonzero;stroke:#d4a574;stroke-width:0.75px;"/><path d="M126.14,85.38c-0.21,-0.38 -0.41,-0.75 -0.6,-1.1c-1.14,0.49 -2.08,0.85 -2.75,1.1c-4.45,1.65 -6.17,1.73 -10.56,2.97c-0.11,0.39 -0.21,0.78 -0.32,1.15c6.16,6.26 10.74,13.48 13.76,21.18c0.14,-1.03 0.34,-2.17 0.66,-3.4c0.65,-2.52 1.52,-4.49 3.15,-7.6c0.92,-1.76 1.69,-3.14 2.36,-4.29c-0.74,-1.36 -1.58,-2.85 -2.53,-4.53c-1.66,-2.95 -1.72,-2.83 -3.17,-5.48Z" style="fill:none;fill-rule:nonzero;stroke:#d4a574;stroke-width:0.75px;"/></g><path d="M147.21,74.29c0.57,2.04 1.18,4.55 2.02,8.08c0.33,1.36 0.74,3.13 1.31,5.33c7.41,-6.98 16.09,-11.85 25.28,-14.57c-1.33,-0.05 -2.4,-0.2 -3.17,-0.3c-1.44,-0.2 -3.36,-0.48 -5.7,-1.37c-1.21,-0.46 -2.07,-0.91 -3.44,-1.65c-1.94,-1.06 -3.32,-1.86 -4.56,-2.59c-2.1,1.23 -3.75,2.25 -5,3.01c-2.88,1.76 -4.98,3.05 -6.75,4.06l0.01,0Z" style="fill:none;fill-rule:nonzero;stroke:#d4a574;stroke-width:0.75px;"/><path d="M113.55,83.33c0.84,-3.28 0.72,-3.23 1.51,-6.14c0.2,-0.74 0.39,-1.42 0.57,-2.07c-1.04,-0.42 -1.89,-0.8 -2.49,-1.07c-4.31,-1.98 -5.59,-3.13 -9.57,-5.36c-4.24,2.42 -7.2,3.82 -10.95,4.67c-0.59,0.14 -2.47,0.54 -5.03,0.74c8.56,2.96 16.61,7.83 23.49,14.59c0.4,-0.12 0.78,-0.23 1.14,-0.33c0.41,-1.49 0.84,-3.15 1.32,-5.02l0.01,-0.01Z" style="fill:none;fill-rule:nonzero;stroke:#d4a574;stroke-width:0.75px;"/><path d="M70.41,68.27c0.09,-2.28 4.83,-3.83 7,-4.54c2.85,-0.93 5.21,-1.03 6.64,-1.08c1.37,-0.05 4.14,-0.05 7.53,0.75c2.54,0.6 4.51,1.43 7.66,3c1.78,0.89 3.17,1.63 4.33,2.28c1.35,-0.77 2.82,-1.63 4.48,-2.62c2.91,-1.72 2.8,-1.78 5.41,-3.27c0.93,-0.53 1.75,-1 2.52,-1.43c-0.2,-0.73 -0.42,-1.51 -0.65,-2.36c-0.79,-2.91 -0.67,-2.87 -1.51,-6.14c-0.48,-1.88 -0.91,-3.53 -1.32,-5.02c-1.29,-0.36 -2.79,-0.82 -4.68,-1.45c-3.33,-1.12 -5.32,-1.93 -7.54,-3.29c-2.97,-1.83 -4.93,-3.79 -5.86,-4.79c-0.97,-1.04 -2.57,-2.79 -3.93,-5.46c-1.03,-2.03 -3.3,-6.48 -1.74,-8.16c1.82,-1.97 7.81,1.04 8.47,1.37c3.03,1.52 4.96,3.58 6.72,5.46c2.32,2.47 3.73,4.67 4.11,5.29c2.05,3.26 3.15,6.34 4.44,11.05c4.39,1.24 6.11,1.32 10.56,2.98c0.48,0.18 1.11,0.42 1.84,0.72c0.11,-0.22 0.23,-0.44 0.35,-0.69c0.81,-1.59 2.14,-4.18 4.1,-7.45c0.74,-1.24 1.39,-2.26 2.09,-3.4c-0.65,-1.17 -1.37,-2.48 -2.14,-3.94c-1.17,-2.23 -1.8,-3.55 -2.31,-5.37c-0.75,-2.66 -0.79,-4.84 -0.84,-6.84c-0.08,-3.37 0.32,-5.83 0.49,-6.75c0.67,-3.75 1.66,-5.4 1.92,-5.83c0.68,-1.09 1.9,-3.06 3.52,-3c0.91,0.03 1.56,0.69 2.21,1.37c0.39,0.41 1.66,1.76 2.58,5.55c0.71,2.89 0.81,5.1 0.82,5.59c0.09,2.53 -0.2,4.44 -0.39,5.64c-0.23,1.44 -0.55,3.35 -1.48,5.67c-0.48,1.2 -0.95,2.06 -1.71,3.4c-1.1,1.92 -1.92,3.29 -2.68,4.51c1.19,2.12 2.17,3.79 2.92,5.05c1.66,2.84 2.89,4.94 3.85,6.7c0.05,-0.02 0.1,-0.03 0.15,-0.05c1.68,-0.58 4.44,-1.53 8.12,-2.53c1.39,-0.38 2.56,-0.67 3.87,-1c0.34,-1.3 0.73,-2.73 1.19,-4.32c0.7,-2.42 1.16,-3.8 2.05,-5.47c1.3,-2.44 2.79,-4.04 4.14,-5.51c2.28,-2.48 4.28,-3.98 5.03,-4.53c3.08,-2.24 4.94,-2.74 5.43,-2.87c1.25,-0.32 3.49,-0.89 4.62,0.27c0.63,0.65 0.64,1.57 0.64,2.52c0,0.56 -0.02,2.41 -1.98,5.79c-1.5,2.58 -2.96,4.24 -3.28,4.6c-1.69,1.89 -3.22,3.06 -4.19,3.8c-1.16,0.88 -2.72,2.04 -4.99,3.06c-1.18,0.53 -2.11,0.83 -3.6,1.26c-2.12,0.63 -3.66,1.04 -5.06,1.39c-0.62,2.35 -1.06,4.24 -1.4,5.66c-0.71,2.96 -1.25,5.2 -1.74,7.05c0.25,0.12 0.5,0.24 0.77,0.37c1.6,0.78 4.22,2.06 7.53,3.95c1.25,0.72 2.29,1.34 3.44,2.02c1.16,-0.68 2.45,-1.41 3.9,-2.21c2.21,-1.22 3.51,-1.87 5.32,-2.42c2.65,-0.8 4.83,-0.89 6.82,-0.97c3.37,-0.14 5.84,0.21 6.75,0.35c3.77,0.6 5.43,1.55 5.86,1.81c1.11,0.66 3.1,1.84 3.07,3.46c-0.01,0.91 -0.66,1.57 -1.33,2.24c-0.23,0.23 -0.79,0.77 -1.95,1.38c2.08,-0.21 4.16,-0.32 6.25,-0.33c0.53,-16.82 -5.61,-33.82 -18.45,-46.66c-24.61,-24.67 -64.6,-24.67 -89.26,-0.01c-12.87,12.87 -19,29.9 -18.45,46.76c1.58,0.01 3.17,0.09 4.74,0.22c-1.05,-0.75 -1.84,-1.63 -1.8,-2.58l0.01,0Z" style="fill:none;fill-rule:nonzero;stroke:#d4a574;stroke-width:0.75px;"/><path d="M151.79,128.01c-1.98,-0.25 -3.56,-0.24 -4.49,-0.21c-1.42,0.05 -3.79,0.16 -6.64,1.08c-1.5,0.49 -4.22,1.38 -5.79,2.63" style="fill:none;fill-rule:nonzero;stroke:#d4a574;stroke-width:0.75px;"/><path d="M67.98,76.91c0.27,2.05 0.64,4.09 1.12,6.11" style="fill-rule:nonzero;stroke:#d4a574;stroke-width:0.75px;"/><path d="M144.88,67.76c0.33,0.79 0.67,1.63 1.03,2.56c0.48,1.21 0.88,2.47 1.31,3.97c1.77,-1.01 3.87,-2.3 6.75,-4.06c1.25,-0.77 2.9,-1.79 5,-3.01c-1.16,-0.68 -2.19,-1.31 -3.44,-2.02c-3.31,-1.9 -5.93,-3.18 -7.53,-3.95c-0.27,-0.13 -0.52,-0.25 -0.77,-0.37c-0.53,1.99 -1.01,3.52 -1.59,5c-0.26,0.67 -0.51,1.29 -0.75,1.89l-0.01,-0.01Z" style="fill:none;fill-rule:nonzero;stroke:#d4a574;stroke-width:0.75px;"/><path d="M103.58,68.69c-1.17,-0.65 -2.56,-1.39 -4.33,-2.28c-3.15,-1.57 -5.12,-2.4 -7.66,-3c-3.4,-0.8 -6.17,-0.8 -7.53,-0.75c-1.42,0.05 -3.79,0.16 -6.64,1.08c-2.17,0.71 -6.91,2.25 -7,4.54c-0.04,0.95 0.75,1.83 1.8,2.58c5.22,0.44 10.39,1.51 15.39,3.25c2.56,-0.2 4.43,-0.6 5.03,-0.74c3.75,-0.86 6.71,-2.26 10.95,-4.67l-0.01,-0.01Zm-23.97,1.95c-2.79,0 -5.05,-0.9 -5.05,-2.02c0,-1.12 2.26,-2.02 5.05,-2.02c2.79,0 5.05,0.9 5.05,2.02c0,1.12 -2.26,2.02 -5.05,2.02Z" style="fill:none;fill-rule:nonzero;stroke:#d4a574;stroke-width:0.75px;"/><path d="M115.63,75.12c0.87,-3.16 1.52,-5.3 2.45,-7.35c-0.76,-1.79 -1.34,-3.73 -2.08,-6.41c-0.77,0.44 -1.59,0.9 -2.52,1.43c-2.62,1.5 -2.5,1.55 -5.41,3.27c-1.67,0.99 -3.14,1.85 -4.48,2.62c3.98,2.23 5.25,3.38 9.57,5.36c0.6,0.28 1.45,0.65 2.49,1.07l-0.02,0.01Z" style="fill:none;fill-rule:nonzero;stroke:#d4a574;stroke-width:0.75px;"/><path d="M166.96,71.46c2.33,0.88 4.26,1.16 5.7,1.37c0.78,0.11 1.84,0.25 3.17,0.3c3.8,-1.12 7.68,-1.88 11.59,-2.27c1.17,-0.61 1.72,-1.14 1.95,-1.38c0.67,-0.67 1.32,-1.33 1.33,-2.24c0.02,-1.62 -1.96,-2.8 -3.07,-3.46c-0.43,-0.26 -2.1,-1.21 -5.86,-1.81c-0.92,-0.15 -3.39,-0.5 -6.75,-0.35c-2,0.08 -4.18,0.17 -6.82,0.97c-1.81,0.55 -3.11,1.2 -5.32,2.42c-1.45,0.8 -2.74,1.54 -3.9,2.21c1.24,0.73 2.62,1.53 4.56,2.59c1.36,0.74 2.23,1.19 3.44,1.65l-0.02,-0Zm15.44,-6.35c2.79,0 5.05,0.9 5.05,2.02c0,1.12 -2.26,2.02 -5.05,2.02c-2.79,0 -5.05,-0.9 -5.05,-2.02c0,-1.12 2.26,-2.02 5.05,-2.02Z" style="fill:none;fill-rule:nonzero;stroke:#d4a574;stroke-width:0.75px;"/><path d="M79.61,66.6c-2.79,0 -5.05,0.9 -5.05,2.02c0,1.12 2.26,2.02 5.05,2.02c2.79,0 5.05,-0.9 5.05,-2.02c0,-1.12 -2.26,-2.02 -5.05,-2.02Z" style="fill:#d4a574;fill-rule:nonzero;stroke:#d4a574;stroke-width:0.75px;"/><path d="M182.4,69.15c2.79,0 5.05,-0.9 5.05,-2.02c0,-1.12 -2.26,-2.02 -5.05,-2.02c-2.79,0 -5.05,0.9 -5.05,2.02c0,1.12 2.26,2.02 5.05,2.02Z" style="fill:#d4a574;fill-rule:nonzero;stroke:#d4a574;stroke-width:0.75px;"/><path d="M135.84,32.07c0.93,-2.32 1.25,-4.23 1.48,-5.67c0.19,-1.21 0.49,-3.11 0.39,-5.64c-0.02,-0.48 -0.11,-2.69 -0.82,-5.59c-0.93,-3.79 -2.2,-5.14 -2.58,-5.55c-0.66,-0.69 -1.3,-1.34 -2.21,-1.37c-1.62,-0.06 -2.84,1.91 -3.52,3c-0.26,0.43 -1.25,2.07 -1.92,5.83c-0.16,0.91 -0.56,3.38 -0.49,6.75c0.05,2 0.09,4.18 0.84,6.84c0.51,1.82 1.14,3.13 2.31,5.37c0.77,1.47 1.48,2.77 2.14,3.94c0.76,-1.22 1.58,-2.59 2.68,-4.51c0.77,-1.35 1.23,-2.21 1.71,-3.4l-0.01,0Zm-3.78,-10.72c-1.12,0 -2.02,-2.26 -2.02,-5.05c0,-2.79 0.9,-5.05 2.02,-5.05c1.12,0 2.02,2.26 2.02,5.05c0,2.79 -0.9,5.05 -2.02,5.05Z" style="fill:none;fill-rule:nonzero;stroke:#d4a574;stroke-width:0.75px;"/><path d="M131.16,81.53c-2.13,1.17 -4.06,2.08 -5.61,2.74c0.19,0.35 0.39,0.72 0.6,1.1c1.44,2.65 1.5,2.53 3.17,5.48c0.95,1.69 1.79,3.17 2.53,4.53c2.31,-3.94 3.49,-5.19 5.55,-9.46c0.2,-0.42 0.46,-0.96 0.75,-1.61c-2.8,-0.97 -4.31,-1.51 -6.07,-2.35c-0.29,-0.14 -0.6,-0.29 -0.9,-0.44l-0.02,0.01Z" style="fill:none;fill-rule:nonzero;stroke:#d4a574;stroke-width:0.75px;"/><path d="M131.78,54.22c1.84,-0.88 3.4,-1.43 6.44,-2.48c-0.96,-1.76 -2.19,-3.86 -3.85,-6.7c-0.74,-1.27 -1.73,-2.93 -2.92,-5.05c-0.71,1.14 -1.35,2.17 -2.09,3.4c-1.96,3.28 -3.29,5.87 -4.1,7.45c-0.12,0.24 -0.24,0.46 -0.35,0.69c1.62,0.66 3.8,1.63 6.26,2.98c0.2,-0.1 0.41,-0.2 0.6,-0.29l0.01,0Z" style="fill:none;fill-rule:nonzero;stroke:#d4a574;stroke-width:0.75px;"/><path d="M141.23,58.26c0.1,0.04 0.21,0.07 0.31,0.11c1.78,0.63 3.19,1.29 5.68,2.5c0.49,-1.85 1.03,-4.09 1.74,-7.05c0.34,-1.43 0.78,-3.31 1.4,-5.66c-1.3,0.33 -2.47,0.63 -3.87,1c-3.69,1 -6.44,1.95 -8.12,2.53c-0.05,0.02 -0.1,0.03 -0.15,0.05c0.88,1.61 1.54,2.94 2.1,4.3c0.33,0.8 0.63,1.53 0.91,2.23l0,-0.01Z" style="fill:none;fill-rule:nonzero;stroke:#d4a574;stroke-width:0.75px;"/><path d="M159.01,45.49c2.27,-1.02 3.83,-2.19 4.99,-3.06c0.97,-0.74 2.51,-1.91 4.19,-3.8c0.32,-0.36 1.78,-2.02 3.28,-4.6c1.96,-3.37 1.98,-5.23 1.98,-5.79c0,-0.95 0,-1.87 -0.64,-2.52c-1.13,-1.16 -3.37,-0.59 -4.62,-0.27c-0.49,0.12 -2.34,0.63 -5.43,2.87c-0.75,0.54 -2.75,2.04 -5.03,4.53c-1.35,1.47 -2.83,3.07 -4.14,5.51c-0.89,1.67 -1.35,3.05 -2.05,5.47c-0.46,1.59 -0.85,3.03 -1.19,4.32c1.39,-0.36 2.93,-0.77 5.06,-1.39c1.49,-0.44 2.42,-0.73 3.6,-1.26l0,-0.01Zm6.37,-15.33c1.97,-1.97 4.21,-2.93 5,-2.14c0.79,0.79 -0.17,3.03 -2.14,5c-1.97,1.97 -4.21,2.93 -5,2.14c-0.79,-0.79 0.17,-3.03 2.14,-5Z" style="fill:none;fill-rule:nonzero;stroke:#d4a574;stroke-width:0.75px;"/><path d="M111.91,89.5c0.11,-0.37 0.21,-0.76 0.32,-1.15c-0.36,0.1 -0.74,0.21 -1.14,0.33c0.15,0.15 0.3,0.28 0.45,0.43c0.13,0.13 0.24,0.26 0.37,0.39Z" style="fill:none;fill-rule:nonzero;stroke:#d4a574;stroke-width:0.75px;"/><path d="M125.54,84.28c-1.59,-2.92 -2.65,-4.93 -3.44,-6.94c-2.6,-0.74 -4.8,-1.54 -6.47,-2.22c-0.18,0.64 -0.36,1.33 -0.57,2.07c-0.79,2.91 -0.67,2.87 -1.51,6.14c-0.48,1.88 -0.91,3.53 -1.32,5.02c4.39,-1.24 6.11,-1.32 10.56,-2.97c0.67,-0.25 1.61,-0.61 2.75,-1.1Z" style="fill:none;fill-rule:nonzero;stroke:#d4a574;stroke-width:0.75px;"/><path d="M168.24,33.01c1.97,-1.97 2.93,-4.21 2.14,-5c-0.79,-0.79 -3.03,0.17 -5,2.14c-1.97,1.97 -2.93,4.21 -2.14,5c0.79,0.79 3.03,-0.17 5,-2.14Z" style="fill:#d4a574;fill-rule:nonzero;stroke:#d4a574;stroke-width:0.75px;"/><path d="M121.22,74.69c-0.16,-0.57 -0.34,-1.25 -0.51,-2.02c-0.63,-0.97 -1.12,-1.84 -1.5,-2.55c-0.43,-0.79 -0.8,-1.55 -1.13,-2.35c-0.93,2.04 -1.57,4.18 -2.45,7.35c1.67,0.68 3.87,1.48 6.47,2.22c-0.34,-0.86 -0.63,-1.72 -0.88,-2.65Z" style="fill:none;fill-rule:nonzero;stroke:#d4a574;stroke-width:0.75px;"/><path d="M141.23,58.26c0.74,1.88 1.28,3.52 1.55,5.44c0.84,1.28 1.47,2.57 2.1,4.06c0.24,-0.6 0.49,-1.22 0.75,-1.89c0.58,-1.48 1.06,-3.01 1.59,-5c-2.49,-1.21 -3.9,-1.87 -5.68,-2.5c-0.1,-0.03 -0.2,-0.07 -0.31,-0.11Z" style="fill:none;fill-rule:nonzero;stroke:#d4a574;stroke-width:0.75px;"/><path d="M131.18,54.51c0.48,0.26 0.98,0.54 1.48,0.83c0.77,0.45 1.48,0.86 2.16,1.27c2.53,0.33 4.6,1.02 6.41,1.66c-0.28,-0.7 -0.58,-1.43 -0.91,-2.23c-0.56,-1.35 -1.22,-2.69 -2.1,-4.3c-3.04,1.05 -4.6,1.6 -6.44,2.48c-0.2,0.09 -0.4,0.19 -0.6,0.29Z" style="fill:none;fill-rule:nonzero;stroke:#d4a574;stroke-width:0.75px;"/><path d="M125.9,78.35c-0.87,-0.21 -1.78,-0.46 -2.78,-0.72c-0.35,-0.09 -0.69,-0.19 -1.03,-0.29c0.79,2.01 1.85,4.02 3.44,6.94c1.55,-0.66 3.48,-1.57 5.61,-2.74c-1.62,-0.79 -3.41,-1.74 -5.25,-3.19l0.01,0Z" style="fill:none;fill-rule:nonzero;stroke:#d4a574;stroke-width:0.75px;"/><path d="M125.9,78.35c-0.39,-0.3 -0.78,-0.62 -1.17,-0.97c-1.81,-1.62 -3.08,-3.26 -4.02,-4.71c0.17,0.77 0.35,1.45 0.51,2.02c0.26,0.93 0.54,1.79 0.88,2.65c0.34,0.1 0.67,0.19 1.03,0.29c1,0.27 1.91,0.51 2.78,0.72l-0.01,-0Z" style="fill:none;fill-rule:nonzero;stroke:#d4a574;stroke-width:0.75px;"/><path d="M141.58,62.06c0.45,0.55 0.84,1.09 1.2,1.64c-0.28,-1.92 -0.81,-3.56 -1.55,-5.44c-1.81,-0.63 -3.88,-1.32 -6.41,-1.66c2.75,1.64 4.8,3.08 6.76,5.46Z" style="fill:none;fill-rule:nonzero;stroke:#d4a574;stroke-width:0.75px;"/><path d="M147.21,74.29c-1.54,0.87 -2.82,1.54 -4.13,2.11c-0.84,0.37 -1.61,0.7 -2.35,1.01c-0.9,2.88 -1.86,5.25 -2.6,6.91c0.17,0.06 0.33,0.12 0.52,0.18c1.68,0.58 4.44,1.53 8.12,2.53c1.27,0.34 2.35,0.62 3.52,0.91c0.09,-0.08 0.17,-0.17 0.26,-0.25c-0.57,-2.2 -0.99,-3.97 -1.31,-5.33c-0.85,-3.53 -1.45,-6.04 -2.02,-8.08l-0.01,0.01Z" style="fill:none;fill-rule:nonzero;stroke:#d4a574;stroke-width:0.75px;"/><path d="M103.96,31.5c-1.76,-1.88 -3.69,-3.94 -6.72,-5.46c-0.66,-0.33 -6.65,-3.34 -8.47,-1.37c-1.55,1.68 0.71,6.13 1.74,8.16c1.36,2.67 2.96,4.42 3.93,5.46c0.93,1 2.89,2.96 5.86,4.79c2.22,1.37 4.21,2.18 7.54,3.29c1.89,0.63 3.39,1.09 4.68,1.45c-1.29,-4.71 -2.39,-7.79 -4.44,-11.05c-0.39,-0.62 -1.8,-2.81 -4.11,-5.29l-0.01,0.02Zm-5.22,3.3c-0.79,0.79 -3.03,-0.17 -5,-2.14c-1.97,-1.97 -2.93,-4.21 -2.14,-5c0.79,-0.79 3.03,0.17 5,2.14c1.97,1.97 2.93,4.21 2.14,5Z" style="fill:none;fill-rule:nonzero;stroke:#d4a574;stroke-width:0.75px;"/><path d="M122.26,57.24c0.67,-1.78 1.37,-3.2 2.65,-5.71c-0.73,-0.3 -1.36,-0.54 -1.84,-0.72c-4.45,-1.65 -6.17,-1.73 -10.56,-2.98c0.41,1.49 0.84,3.15 1.32,5.02c0.84,3.28 0.72,3.23 1.51,6.14c0.23,0.85 0.45,1.63 0.65,2.36c2.31,-1.3 4.05,-2.22 5.83,-2.92c0.15,-0.41 0.3,-0.82 0.44,-1.21l0,0.02Z" style="fill:none;fill-rule:nonzero;stroke:#d4a574;stroke-width:0.75px;"/><path d="M91.59,27.66c-0.79,0.79 0.17,3.03 2.14,5c1.97,1.97 4.21,2.93 5,2.14c0.79,-0.79 -0.17,-3.03 -2.14,-5c-1.97,-1.97 -4.21,-2.93 -5,-2.14Z" style="fill:#d4a574;fill-rule:nonzero;stroke:#d4a574;stroke-width:0.75px;"/><path d="M141.16,76.02c-0.14,0.48 -0.28,0.94 -0.42,1.39c0.74,-0.3 1.51,-0.64 2.35,-1.01c1.31,-0.57 2.59,-1.23 4.13,-2.11c-0.42,-1.51 -0.83,-2.76 -1.31,-3.97c-0.36,-0.93 -0.7,-1.77 -1.03,-2.56c-0.86,2.12 -1.67,3.83 -2.97,5.58c-0.23,0.84 -0.48,1.72 -0.75,2.68Z" style="fill:none;fill-rule:nonzero;stroke:#d4a574;stroke-width:0.75px;"/><path d="M118.93,66.07c0.38,-0.71 0.87,-1.59 1.5,-2.55c0.33,-1.94 0.85,-3.59 1.39,-5.07c-1.77,0.7 -3.52,1.62 -5.83,2.92c0.74,2.68 1.33,4.62 2.08,6.41c0.26,-0.57 0.54,-1.13 0.85,-1.71l0.01,-0Z" style="fill:none;fill-rule:nonzero;stroke:#d4a574;stroke-width:0.75px;"/><path d="M121.82,58.44c0.73,-0.29 1.46,-0.55 2.25,-0.78c0.75,-0.22 1.69,-0.49 2.8,-0.73c1.52,-1.03 2.98,-1.78 4.31,-2.43c-2.47,-1.34 -4.64,-2.31 -6.26,-2.98c-1.28,2.51 -1.98,3.92 -2.65,5.71c-0.14,0.39 -0.29,0.79 -0.44,1.21l-0.01,-0Z" style="fill:none;fill-rule:nonzero;stroke:#d4a574;stroke-width:0.75px;"/><path d="M132.38,80.85c-0.42,0.24 -0.82,0.46 -1.22,0.69c0.31,0.15 0.61,0.3 0.9,0.44c1.76,0.85 3.28,1.38 6.07,2.35c0.74,-1.66 1.7,-4.03 2.6,-6.91c-1.8,0.74 -3.4,1.29 -5.25,1.6c-0.94,0.58 -1.96,1.18 -3.1,1.84l0,-0.01Z" style="fill:none;fill-rule:nonzero;stroke:#d4a574;stroke-width:0.75px;"/><path d="M141.91,73.34c-0.19,0.26 -0.39,0.52 -0.61,0.79c-1.73,2.1 -3.53,3.46 -5.82,4.88c1.86,-0.31 3.45,-0.85 5.25,-1.6c0.14,-0.45 0.28,-0.91 0.42,-1.39c0.28,-0.96 0.53,-1.84 0.75,-2.68l0.01,0Z" style="fill:none;fill-rule:nonzero;stroke:#d4a574;stroke-width:0.75px;"/><path d="M124.46,58.81c0.81,-0.73 1.62,-1.33 2.41,-1.87c-1.1,0.23 -2.04,0.5 -2.8,0.73c-0.79,0.23 -1.52,0.49 -2.25,0.78c-0.53,1.48 -1.06,3.13 -1.39,5.07c0.94,-1.44 2.22,-3.09 4.02,-4.7l0.01,-0.01Z" style="fill:none;fill-rule:nonzero;stroke:#d4a574;stroke-width:0.75px;"/><path d="M141.91,73.34c1.3,-1.75 2.11,-3.46 2.97,-5.58c-0.62,-1.48 -1.26,-2.78 -2.1,-4.06c0.06,0.41 0.11,0.84 0.15,1.29c0.23,2.98 -0.22,5.38 -1.02,8.35Z" style="fill:none;fill-rule:nonzero;stroke:#d4a574;stroke-width:0.75px;"/><path d="M120.71,72.67c-0.41,-1.83 -0.75,-4.2 -0.54,-7.04c0.06,-0.74 0.15,-1.44 0.26,-2.11c-0.63,0.97 -1.12,1.85 -1.5,2.55c-0.31,0.58 -0.59,1.14 -0.85,1.71c0.33,0.79 0.7,1.56 1.13,2.35c0.38,0.71 0.87,1.58 1.5,2.55l0,-0.01Z" style="fill:none;fill-rule:nonzero;stroke:#d4a574;stroke-width:0.75px;"/><path d="M132.38,80.85c1.14,-0.66 2.16,-1.26 3.1,-1.84c-0.42,0.07 -0.84,0.13 -1.29,0.17c-2.95,0.29 -5.34,-0.1 -8.29,-0.83c1.85,1.44 3.64,2.4 5.25,3.19c0.4,-0.22 0.81,-0.44 1.22,-0.69l0.01,0Z" style="fill:none;fill-rule:nonzero;stroke:#d4a574;stroke-width:0.75px;"/><path d="M133.11,56.44c0.6,0.03 1.16,0.1 1.72,0.17c-0.68,-0.41 -1.39,-0.82 -2.16,-1.27c-0.5,-0.29 -1,-0.57 -1.48,-0.83c-1.34,0.65 -2.79,1.39 -4.31,2.43c1.7,-0.36 3.79,-0.63 6.24,-0.5l-0.01,0Z" style="fill:none;fill-rule:nonzero;stroke:#d4a574;stroke-width:0.75px;"/><path d="M120.71,72.67c0.94,1.44 2.22,3.09 4.02,4.71c0.39,0.35 0.78,0.67 1.17,0.97c2.95,0.73 5.34,1.12 8.29,0.83c0.45,-0.04 0.88,-0.1 1.29,-0.17c2.29,-1.42 4.09,-2.78 5.82,-4.88c0.22,-0.27 0.42,-0.53 0.61,-0.79c0.8,-2.97 1.25,-5.37 1.02,-8.35c-0.04,-0.45 -0.09,-0.87 -0.15,-1.29c-0.36,-0.54 -0.75,-1.08 -1.2,-1.64c-1.95,-2.38 -4.01,-3.81 -6.76,-5.46c-0.55,-0.07 -1.12,-0.13 -1.72,-0.17c-2.45,-0.14 -4.54,0.14 -6.24,0.5c-0.79,0.54 -1.59,1.15 -2.41,1.87c-1.81,1.61 -3.08,3.26 -4.02,4.7c-0.11,0.67 -0.21,1.37 -0.26,2.11c-0.21,2.85 0.13,5.21 0.54,7.04l-0,0.02Zm7.9,-7.18c1.38,-1.38 3.62,-1.38 5,0c1.38,1.38 1.38,3.62 0,5c-1.38,1.38 -3.62,1.38 -5,0c-1.38,-1.38 -1.38,-3.62 0,-5Z" style="fill:none;fill-rule:nonzero;stroke:#d4a574;stroke-width:0.75px;"/><path d="M133.6,70.48c1.38,-1.38 1.38,-3.62 0,-5c-1.38,-1.38 -3.62,-1.38 -5,0c-1.38,1.38 -1.38,3.62 0,5c1.38,1.38 3.62,1.38 5,0Z" style="fill:#d4a574;fill-rule:nonzero;stroke:#d4a574;stroke-width:0.75px;"/><path d="M135.94,121.69c1.13,-3.2 1.09,-6.02 1.06,-8.6c-0.03,-2.6 -0.34,-4.7 -0.55,-5.87c-1.54,3.33 -2.75,6.77 -3.68,10.28c0.15,0.7 0.23,1.48 0.23,2.31c0,2.53 -0.75,4.61 -1.72,4.97c-0.18,1.24 -0.3,2.49 -0.4,3.74c2.63,0 4.81,-6.16 5.05,-6.85l0.01,0.02Z" style="fill:none;fill-rule:nonzero;"/><ellipse cx="132.06" cy="16.3" rx="2.02" ry="5.05" style="fill:#d4a574;stroke:#d4a574;stroke-width:0.75px;"/></g><path d="M130.24,128.9c-3.14,-0.23 -4.63,-8.97 -4.76,-9.75c-0.96,-5.89 0.44,-10.71 1.3,-13.55c0.8,-2.63 2.24,-6.33 4.94,-10.33c2.87,4.76 4.06,9.07 4.61,11.83c0.64,3.21 1.54,8.04 -0.21,13.52c-0.85,2.65 -3.27,8.46 -5.89,8.27l0.01,0.01Z" style="fill:#d4a574;fill-rule:nonzero;"/><path d="M133.95,133.79c0.12,3.18 9.14,4.96 9.52,5.03c5.81,1.13 10.62,-0.14 13.45,-0.92c2.63,-0.72 6.33,-2.06 10.37,-4.65c-1.85,-1.1 -4.43,-2.41 -7.67,-3.44c-1.1,-0.35 -5.5,-1.7 -11.55,-1.76c-3.38,-0.03 -5.79,-0.03 -8.67,1.17c-1.09,0.46 -5.54,2.31 -5.45,4.56l-0,0.01Z" style="fill:#d4a574;fill-rule:nonzero;"/><path d="M131.07,137.81c-3.15,0.07 -5.08,8.72 -5.25,9.49c-1.26,5.84 -0.11,10.72 0.61,13.6c0.66,2.67 1.91,6.44 4.41,10.57c2.41,-4.57 4.32,-8.84 5.21,-11.58c1.01,-3.11 1.94,-7.95 0.48,-13.51c-0.71,-2.69 -2.84,-8.62 -5.46,-8.56l0,-0.01Z" style="fill:#d4a574;fill-rule:nonzero;"/></svg>