<?xml version="1.0" encoding="UTF-8" standalone="no"?><!DOCTYPE svg PUBLIC "-//W3C//DTD SVG 1.1//EN" "http://www.w3.org/Graphics/SVG/1.1/DTD/svg11.dtd"><svg width="100%" height="100%" viewBox="490 990 1500 1500" version="1.1" xmlns="http://www.w3.org/2000/svg" xmlns:xlink="http://www.w3.org/1999/xlink" xml:space="preserve" xmlns:serif="http://www.serif.com/" style="fill-rule:evenodd;clip-rule:evenodd;stroke-linecap:round;stroke-linejoin:round;stroke-miterlimit:1.5;"><g><g><path d="M1553.27,1553.27c-96.182,172.197 -314.073,233.912 -486.27,137.73c-172.197,-96.182 -233.912,-314.073 -137.73,-486.27c96.182,-172.197 314.073,-233.912 486.27,-137.73c172.197,96.182 233.912,314.073 137.73,486.27Z" style="fill:none;stroke:#d4a574;stroke-width:12.5px;"/></g><path d="M883.941,1372.381c59.416,-0.232 119.694,14.365 175.22,45.38c119.027,66.484 185.267,191.119 183.059,318.619c-59.416,0.232 -119.694,-14.365 -175.22,-45.38c-119.027,-66.484 -185.267,-191.119 -183.059,-318.619Z" style="fill:none;"/><path d="M1246.862,1740.797c59.383,-0.215 119.624,14.383 175.119,45.381c113.387,63.334 178.871,179.438 182.913,300.52c-59.383,0.215 -119.624,-14.383 -175.119,-45.381c-113.387,-63.334 -178.871,-179.438 -182.913,-300.52Z" style="fill:none;"/><path d="M1246.741,1736.334c-1.282,-61.372 13.234,-123.87 45.305,-181.288c64.381,-115.262 183.292,-181.023 306.529,-183.063c1.282,61.372 -13.234,123.87 -45.305,181.288c-64.381,115.262 -183.292,181.023 -306.529,183.063Z" style="fill:none;"/><path d="M890.487,2087.093c1.657,-55.492 16.301,-111.405 45.224,-163.186c64.359,-115.223 183.211,-180.978 306.404,-183.061c-1.657,55.492 -16.301,111.405 -45.224,163.186c-64.359,115.223 -183.211,180.978 -306.404,183.061Z" style="fill:none;"/><path d="M883.941,1372.381c0.986,-56.955 15.631,-114.481 45.329,-167.651c96.182,-172.197 314.073,-233.912 486.27,-137.73c172.197,96.182 233.912,314.073 137.73,486.27c-65.168,116.671 -186.207,182.623 -311.05,183.11c2.208,-127.5 -64.031,-252.135 -183.059,-318.619c-55.527,-31.015 -115.804,-45.612 -175.22,-45.38Z" style="fill:none;stroke:#d4a574;stroke-width:12.5px;"/><g><path d="M1559.711,2272.448c-96.182,172.197 -314.073,233.912 -486.27,137.73c-172.197,-96.182 -233.912,-314.073 -137.73,-486.27c96.182,-172.197 314.073,-233.912 486.27,-137.73c172.197,96.182 233.912,314.073 137.73,486.27Z" style="fill:none;stroke:#d4a574;stroke-width:12.5px;"/></g><g><path d="M1916.046,1903.587c-96.182,172.197 -314.073,233.912 -486.27,137.73c-172.197,-96.182 -233.912,-314.073 -137.73,-486.27c96.182,-172.197 314.073,-233.912 486.27,-137.73c172.197,96.182 233.912,314.073 137.73,486.27Z" style="fill:none;stroke:#d4a574;stroke-width:12.5px;"/></g><g><path d="M1242.22,1736.38c-0.986,56.955 -15.631,114.481 -45.329,167.651c-96.182,172.197 -314.073,233.912 -486.27,137.73c-172.197,-96.182 -233.912,-314.073 -137.73,-486.27c65.168,-116.671 186.207,-182.623 311.05,-183.11c-2.208,127.5 64.031,252.135 183.059,318.619c55.527,31.015 115.804,45.612 175.22,45.38Z" style="fill:none;stroke:#d4a574;stroke-width:12.5px;"/><path d="M1271.477,1854.054l6,-5.995l-6,6.189c-3.311,0 -6,-2.689 -6,-6c0,-0.03 0,-0.06 0.001,-0.09c0.02,1.466 0.477,2.571 1.132,3.403c-0.695,-0.962 -1.111,-2.138 -1.132,-3.41c0,-0.03 0.001,-0.059 0.002,-0.089l-0.003,-0.003c-0,-0.002 -0,-0.004 -0,-0.005c0,-3.311 2.689,-6 6,6Zm-5.999,-5.896c-0,-0.033 -0.001,-0.066 -0.001,-0.099c0,0.031 0,0.061 0.001,0.092c-0,0.002 -0,0.005 -0,0.007Z"/><path d="M1242.22,1736.38c-59.416,0.232 -119.694,-14.365 -175.22,-45.38c-119.027,-66.484 -185.267,-191.119 -183.059,-318.619c59.416,-0.232 119.694,14.365 175.22,45.38c119.027,66.484 185.267,191.119 183.059,318.619Z" style="fill:none;stroke:#d4a574;stroke-width:12.5px;"/><g><path d="M1247.239,1962.765c0,0 -40.771,-31.044 -40.611,-142.171c0.032,-22.527 18.347,-40.789 40.874,-40.757c22.527,0.032 40.789,18.347 40.757,40.874c-0.16,111.127 -41.019,142.054 -41.019,142.054Z" style="fill:#d4a574;"/><path d="M1247.5,1748c0,0 40.5,2.72 40.5,72.5c0,22.353 -18.147,40.5 -40.5,40.5c-22.353,0 -40.5,-18.147 -40.5,-40.5c0,-69.78 40.5,-72.5 40.5,-72.5Z" style="fill:#d4a574;"/></g><g><path d="M1241.752,1512.501c0,0 40.777,31.036 40.639,142.163c-0.028,22.527 -18.339,40.793 -40.866,40.765c-22.527,-0.028 -40.793,-18.339 -40.765,-40.866c0.138,-111.127 40.992,-142.062 40.992,-142.062Z" style="fill:#d4a574;"/><path d="M1241.533,1727.266c0,0 -40.501,-2.712 -40.514,-72.492c-0.004,-22.353 18.14,-40.504 40.492,-40.508c22.353,-0.004 40.504,18.14 40.508,40.492c0.014,69.78 -40.486,72.508 -40.486,72.508Z" style="fill:#d4a574;"/></g><g><path d="M1474.166,1730.265c0,0 -30.482,41.192 -141.602,42.555c-22.525,0.276 -41.037,-17.787 -41.313,-40.312c-0.276,-22.525 17.787,-41.037 40.312,-41.313c111.119,-1.363 142.603,39.069 142.603,39.069Z" style="fill:#d4a574;"/><path d="M1259.417,1732.946c0,0 2.165,-40.533 71.938,-41.49c22.35,-0.306 40.745,17.591 41.051,39.941c0.306,22.35 -17.591,40.745 -39.941,41.051c-69.773,0.956 -73.048,-39.503 -73.048,-39.503Z" style="fill:#d4a574;"/></g><g><path d="M1016.129,1736.983c0,0 31.391,-40.504 142.513,-39.394c22.525,0.225 40.631,18.695 40.406,41.221c-0.225,22.525 -18.695,40.631 -41.221,40.406c-111.122,-1.11 -141.698,-42.233 -141.698,-42.233Z" style="fill:#d4a574;"/><path d="M1230.884,1739.081c0,0 -3.066,40.475 -72.844,39.879c-22.352,-0.191 -40.343,-18.493 -40.152,-40.845c0.191,-22.352 18.493,-40.343 40.845,-40.152c69.777,0.597 72.151,41.118 72.151,41.118Z" style="fill:#d4a574;"/></g></g></g></svg>